<?xml version="1.0" standalone="no"?>
<!DOCTYPE svg PUBLIC "-//W3C//DTD SVG 1.1//EN" "http://www.w3.org/Graphics/SVG/1.1/DTD/svg11.dtd" >
<svg xmlns="http://www.w3.org/2000/svg" xmlns:xlink="http://www.w3.org/1999/xlink" version="1.1">
<metadata>
Created by FontForge 20200314 at Sun Dec  4 18:12:49 2011
 By Unknown
</metadata>
<defs>
<font id="MicrogrammaW01-BoldExtended" horiz-adv-x="907" >
  <font-face 
    font-family="MicrogrammaW01-BoldExtended"
    font-weight="700"
    font-stretch="normal"
    units-per-em="1000"
    panose-1="4 0 8 5 0 0 0 0 0 0"
    ascent="732"
    descent="-268"
    x-height="473"
    cap-height="667"
    bbox="-71 -284 1891 1012"
    underline-thickness="120"
    underline-position="-220"
    unicode-range="U+0020-2122"
  />
<missing-glyph horiz-adv-x="0" 
 />
    <glyph glyph-name=".notdef" horiz-adv-x="0" 
 />
    <glyph glyph-name="glyph1" horiz-adv-x="0" 
 />
    <glyph glyph-name="glyph2" horiz-adv-x="0" 
 />
    <glyph glyph-name="space" unicode=" " horiz-adv-x="250" 
 />
    <glyph glyph-name="exclam" unicode="!" horiz-adv-x="333" 
d="M279 209v-209h-224v209h224zM267 667v-381h-200v381h200z" />
    <glyph glyph-name="quotedbl" unicode="&#x22;" horiz-adv-x="520" 
d="M310 372l-20 295h194l-20 -295h-154zM57 372l-20 295h193l-19 -295h-154z" />
    <glyph glyph-name="numbersign" unicode="#" 
d="M400 667l-23 -162h200l23 162h127l-23 -162h133l-15 -107h-133l-18 -129h133l-15 -107h-133l-23 -162h-127l23 162h-200l-23 -162h-126l22 162h-133l15 107h133l19 129h-134l15 107h134l22 162h127zM344 269h200l18 129h-200z" />
    <glyph glyph-name="dollar" unicode="$" 
d="M503 731v-56q77 0 131 -2t91.5 -7.5t62.5 -15t44 -24.5q15 -12 24 -24.5t14 -30.5t6.5 -44t1.5 -66h-177q0 22 -3 34.5t-22 18.5t-59 7.5t-114 3.5v-112q11 0 46 -1t83 -2q47 -1 81 -3.5t59.5 -7.5t43.5 -13t33 -19q26 -20 38 -57t12 -97q0 -66 -12 -109t-42 -68.5
t-81 -35.5t-129 -10l-116 1h-16v-70h-109v70h-37q-111 0 -179.5 7.5t-106 28.5t-50.5 59.5t-13 100.5l1 44h177l1 -12q1 -33 4 -45t12 -18q13 -8 50 -11.5t115 -3.5h9.5t16.5 1v124q-67 1 -106 1.5t-63 2t-40 3.5t-37 5q-71 11 -101 54.5t-30 133.5q0 86 25.5 131t83.5 62
q27 8 87 12.5t138 4.5h19.5t23.5 -1v56h109zM385 524q-61 0 -101 -2.5t-51 -7.5q-28 -10 -28 -42q0 -44 48 -52q12 -2 24 -3t28 -2t37.5 -1.5t51.5 -0.5v111h-9zM503 144q20 -1 33.5 -1h27.5q48 0 77.5 2t45 8t20.5 17.5t5 30.5q0 26 -11 39t-37 17q-12 1 -20 2t-23 2
t-42 1.5t-76 1.5v-120z" />
    <glyph glyph-name="percent" unicode="%" horiz-adv-x="1341" 
d="M284 677q83 0 142 -7t83 -21q12 -7 19.5 -17t12 -29t6 -49t1.5 -76q0 -52 -2 -84t-8 -50.5t-17 -28t-29 -15.5q-13 -5 -34.5 -9t-48.5 -6.5t-58.5 -4t-65.5 -1.5q-191 0 -236 36q-9 7 -14.5 18t-8.5 30t-4.5 48t-1.5 71q0 39 1.5 66t5 45.5t9 29.5t13.5 18t18 11.5
t24 8.5t32.5 6.5t44.5 4.5q25 2 57 3.5t59 1.5zM282 573q-95 0 -120 -11q-14 -7 -19.5 -25.5t-5.5 -56.5q0 -47 7 -65.5t27 -24.5q13 -4 43 -6t68 -2t73.5 3t50.5 8q13 4 18.5 23.5t5.5 60.5q0 48 -9 71q-3 10 -12.5 14t-38.5 6q-23 3 -44 4t-44 1zM1049 604l-687 -620
l-70 79l688 620zM1048 391q97 0 160.5 -10t85.5 -29q8 -7 13.5 -17t8.5 -28.5t4 -47t1 -71.5q0 -41 -1 -68.5t-4 -45.5t-8.5 -28t-13.5 -17q-22 -19 -85 -29t-162 -10q-181 0 -226 36q-9 7 -15 18t-9 30.5t-4.5 48.5t-1.5 72q0 40 1.5 67t5 45.5t9 29.5t14.5 18
q45 36 227 36zM1048 286q-42 0 -72 -3t-42 -8q-14 -5 -19.5 -24t-5.5 -59q0 -24 1.5 -40.5t5.5 -26.5t10.5 -15t17.5 -8q13 -4 41 -6t61 -2q21 0 41.5 1t38.5 2.5t31.5 3.5t20.5 4q25 7 25 83q0 71 -17 83q-9 7 -47.5 11t-90.5 4z" />
    <glyph glyph-name="ampersand" unicode="&#x26;" horiz-adv-x="947" 
d="M840 365q1 -12 1 -19v-21q0 -29 -0.5 -48t-1.5 -32.5t-2.5 -23t-4.5 -18.5l155 -77l-64 -130l-139 72q-16 -23 -40 -37.5t-65 -22.5t-103 -11.5t-155 -3.5q-81 0 -137 1.5t-93.5 6t-61.5 12t-41 19.5t-28.5 26.5t-19 35t-10.5 48t-3 64.5q0 46 6 76.5t21 49.5t42 29
t69 16q-19 7 -31.5 17.5t-20 26.5t-10.5 38.5t-3 54.5q0 66 21 99.5t71 47.5q13 4 30.5 6.5t43.5 4t63 2t89 0.5q84 0 137 -1t86 -4t51 -8.5t33 -14.5q30 -19 41.5 -52.5t11.5 -99.5l-1 -39h-178q-2 32 -4 44t-8 17q-8 7 -36 9.5t-94 2.5q-72 0 -107 -1.5t-43 -4.5
q-19 -7 -19 -33q0 -8 1.5 -13.5t6 -10t12.5 -9t22 -11.5l338 -165q3 48 3 55v12.5t-2 17.5h171zM284 301q-23 -2 -36 -5.5t-20.5 -12t-9.5 -22.5t-2 -37q0 -31 3.5 -48t21.5 -25t55.5 -9.5t106.5 -1.5l183 1q13 1 19.5 2t15.5 5z" />
    <glyph glyph-name="quotesingle" unicode="'" horiz-adv-x="267" 
d="M57 372l-20 295h193l-19 -295h-154z" />
    <glyph glyph-name="parenleft" unicode="(" horiz-adv-x="393" 
d="M359 564h-29q-56 0 -78.5 -8t-29.5 -30q-4 -14 -6 -65t-2 -147q0 -67 0.5 -108t2.5 -65.5t5.5 -36.5t9.5 -19q7 -11 28 -15t71 -4l28 -1v-128l-35 1q-53 0 -89.5 1.5t-61.5 6t-42 12.5t-32 20q-24 20 -40.5 58t-19.5 81q-3 41 -4.5 93.5t-1.5 115.5q0 78 2.5 130.5
t8.5 87.5t16.5 56.5t27.5 39.5q15 15 32.5 24.5t43.5 15t63.5 7.5t92.5 2h39v-125z" />
    <glyph glyph-name="parenright" unicode=")" horiz-adv-x="393" 
d="M72 689q55 0 92.5 -2t64 -7.5t43.5 -15t32 -24.5q17 -18 27.5 -39.5t16.5 -56.5t8.5 -87.5t2.5 -130.5q0 -71 -1.5 -120t-4.5 -82.5t-8.5 -55t-14.5 -39.5q-15 -32 -35 -49.5t-53 -28.5q-12 -4 -26.5 -6.5t-34.5 -4t-48 -2t-65 -0.5l-35 -1v128l28 1q25 0 42.5 1t28.5 3
t17.5 5.5t10.5 9.5q6 7 9.5 19t5.5 36.5t2.5 65.5t0.5 108q0 57 -0.5 96.5t-2 65t-4 39.5t-5.5 21q-9 16 -31.5 22t-75.5 6h-26v125h39z" />
    <glyph glyph-name="asterisk" unicode="*" horiz-adv-x="500" 
d="M299 667v-99l96 26l25 -88l-92 -26l56 -84l-75 -53l-59 84l-60 -79l-73 56l59 79l-95 32l30 87l95 -32v97h93z" />
    <glyph glyph-name="plus" unicode="+" 
d="M127 280v120h267v235h120v-235h266v-120h-266v-235h-120v235h-267z" />
    <glyph glyph-name="comma" unicode="," horiz-adv-x="341" 
d="M284 198v-194q0 -31 -1.5 -54t-4.5 -39.5t-8 -28.5t-12 -21q-9 -12 -21 -20t-30 -12.5t-45 -6t-67 -1.5h-24.5t-27.5 1v105h15h18q27 0 39 12.5t12 41.5v19h-56v198h213z" />
    <glyph glyph-name="hyphen" unicode="-" horiz-adv-x="422" 
d="M422 307v-135h-422l1 135h421z" />
    <glyph glyph-name="period" unicode="." horiz-adv-x="327" 
d="M270 177v-177h-213v177h213z" />
    <glyph glyph-name="slash" unicode="/" horiz-adv-x="612" 
d="M94 -144h-127l551 955h128z" />
    <glyph glyph-name="zero" unicode="0" 
d="M454 675q90 0 160.5 -3t108.5 -9q59 -8 95 -41.5t46 -87.5q3 -15 4.5 -27t2.5 -32t1 -53v-89v-88.5t-1 -52.5t-2.5 -32t-4.5 -27q-10 -54 -46 -87.5t-95 -41.5q-38 -6 -108.5 -9t-160.5 -3q-91 0 -161.5 3t-107.5 9q-60 8 -96 41.5t-46 87.5q-3 15 -4.5 28t-2 34t-1 55
t-0.5 91q0 49 0.5 80t1 51.5t2 34t4.5 27.5q10 54 46 87.5t96 41.5q38 6 108 9t161 3zM441 502q-73 0 -113.5 -3.5t-60.5 -19.5t-24.5 -49.5t-4.5 -92.5q0 -62 4 -97t23.5 -51.5t60.5 -20t114 -3.5q47 0 81 1t57 3.5t37 6t22 9.5q9 6 15 17t10 28t5.5 42.5t1.5 61.5
q0 62 -4 96t-26 50t-68 19t-130 3z" />
    <glyph glyph-name="one" unicode="1" 
d="M669 667v-667h-203v493h-53l-197 -166l-112 131l244 209h321z" />
    <glyph glyph-name="two" unicode="2" 
d="M54 419q-1 9 -1 18.5v11.5q0 75 12 120t51.5 68.5t114.5 30.5t202 7q105 0 167.5 -1t99 -4t54.5 -9.5t35 -17.5q16 -11 27.5 -25.5t18.5 -35.5t10 -49.5t3 -68.5q0 -59 -6.5 -92.5t-22.5 -57.5q-22 -32 -70.5 -49t-133.5 -22q-105 -7 -168 -11t-98 -7t-48 -5t-18 -4
q-19 -8 -25.5 -19.5t-7.5 -36.5v-7h609v-153h-795q-1 12 -1.5 21t-1 17.5t-0.5 17v20.5q0 83 3.5 126.5t11.5 66.5t20.5 39.5t32.5 28.5t48 20t67 13q5 1 76 6.5t211 16.5q44 3 69.5 6.5t38 10.5t16 19t3.5 33q0 29 -7 41.5t-25 17.5q-7 2 -16.5 3.5t-26.5 2t-43 1t-65 0.5
q-48 0 -82.5 -0.5t-58.5 -2t-39 -4t-23 -5.5q-13 -5 -17 -20.5t-5 -53.5v-23h-196z" />
    <glyph glyph-name="three" unicode="3" 
d="M49 434v39q0 66 14.5 106t59.5 61t129 28t223 7q72 0 122 -1.5t84.5 -6t56 -11.5t37.5 -18q32 -22 45 -56.5t13 -94.5q0 -35 -5 -59.5t-18 -41t-34 -27t-52 -16.5q39 -9 62.5 -19t37 -27.5t18 -44t4.5 -68.5q0 -37 -5 -64.5t-17 -47t-31 -33t-46 -22.5
q-20 -7 -50.5 -11.5t-75.5 -7.5t-105.5 -4.5t-141.5 -1.5q-56 0 -98 2t-72.5 6t-53 11t-39.5 18q-18 10 -30.5 25t-20 37t-10.5 53t-3 73v23h193l1 -12q0 -32 3.5 -45.5t12.5 -20.5q5 -3 10 -5t12.5 -3t19 -2t30.5 -1l115 -2q14 0 37 0.5l46 1t42 1.5t25 2q32 4 43.5 15.5
t11.5 40.5q0 43 -31 51l-12 2t-20 1.5t-40 1t-71 1.5h-117v143h154q38 0 62 2.5t38 8.5t19 17t5 28q0 19 -5 30t-24 16.5t-56 7t-101 1.5q-78 0 -120 -1t-61.5 -8t-22.5 -21.5t-3 -41.5v-15h-194z" />
    <glyph glyph-name="four" unicode="4" 
d="M901 124h-130v-124h-193v124h-532v255l396 288h329v-393h130v-150zM578 512h-41l-309 -212v-26h350v238z" />
    <glyph glyph-name="five" unicode="5" 
d="M815 667v-143h-434h-56t-36 1t-22.5 1.5t-15.5 2.5v-72v-28.5t-2 -21.5q10 9 18 15.5t15 10.5t14.5 6.5t17.5 4.5q12 3 32 5.5t45.5 4t56 2.5t62.5 1q105 0 170.5 -8.5t102.5 -32.5t50 -66.5t13 -111.5q0 -49 -5 -85.5t-16.5 -62.5t-29.5 -43.5t-44 -27.5
q-20 -8 -41.5 -13t-50.5 -8t-69 -4.5t-97 -1.5q-76 0 -129 1t-91.5 3t-66 5.5t-52.5 9.5q-58 13 -82.5 51.5t-24.5 117.5v10.5t1 15.5h193q1 -21 3.5 -32t8.5 -16t18.5 -9t34.5 -6t54.5 -3t78.5 -1q54 0 86.5 0.5t52 1.5t29 3t17.5 5q14 7 19.5 25t5.5 58q0 38 -9 52.5
t-33 19.5q-12 2 -34 4t-50.5 3.5t-61 2t-65.5 0.5q-47 0 -76 -2t-44.5 -7t-20 -15.5t-4.5 -26.5h-178v404h742z" />
    <glyph glyph-name="six" unicode="6" 
d="M653 480q-1 14 -3.5 20t-7.5 10q-4 3 -8 5t-11.5 3t-21.5 1.5t-37 1.5q-65 3 -113 3q-74 0 -115.5 -3.5t-58.5 -11.5q-16 -8 -22 -29.5t-6 -69.5v-15.5t1 -21.5q19 18 39 29.5t49.5 18t72.5 9t109 2.5q99 0 161 -9t97 -33t48 -66.5t13 -109.5q0 -45 -5 -78t-16 -57
t-29 -39.5t-44 -25.5q-16 -6 -40.5 -10.5t-63 -7t-93.5 -3.5t-133 -1q-72 0 -122.5 2.5t-85.5 8.5t-58 16.5t-40 25.5q-17 16 -27.5 35t-16 52.5t-7.5 86.5t-2 136q0 41 0.5 69.5t2 49.5t3.5 37t6 33q9 40 30.5 65.5t66.5 40t118.5 20t186.5 5.5q85 0 143.5 -2.5t97.5 -8.5
t62 -16.5t38 -26.5q9 -9 15 -20.5t9.5 -28t5.5 -39t2 -53.5h-190zM424 282q-35 0 -58.5 -0.5t-39 -1.5t-24.5 -3t-16 -5q-33 -14 -33 -60q0 -29 9.5 -44t29.5 -20q11 -3 44.5 -4.5t81.5 -1.5q21 0 48 0.5t52.5 1t46 1.5t28.5 2q26 3 37.5 17.5t11.5 46.5q0 25 -5 39.5
t-26.5 21.5t-65 8.5t-121.5 1.5z" />
    <glyph glyph-name="seven" unicode="7" 
d="M838 667v-155l-378 -512h-256l376 498h-504v169h762z" />
    <glyph glyph-name="eight" unicode="8" 
d="M192 341q-35 3 -58 11.5t-37.5 25.5t-20.5 44.5t-6 66.5q0 75 23.5 113t78.5 54q16 4 43.5 8t64.5 6t81 3.5t92 1.5q245 0 307 -28q42 -19 59.5 -55.5t17.5 -102.5q0 -39 -6 -66.5t-20.5 -44.5t-38 -25.5t-57.5 -11.5q19 -3 31.5 -5.5t21.5 -5.5t16 -6.5t13 -8.5
q26 -18 37 -50.5t11 -86.5q0 -59 -12.5 -93.5t-38.5 -51.5q-20 -14 -42 -22t-58 -12t-92.5 -5.5t-147.5 -1.5t-148 1.5t-93 5.5t-58 12t-42 22q-26 17 -38.5 52t-12.5 93q0 61 14.5 94.5t46.5 50.5q12 6 26 9.5t43 8.5zM433 525q-57 0 -90.5 -2t-51.5 -8t-23 -17.5t-5 -30.5
q0 -20 4 -31.5t22 -17t55 -7t102 -1.5q74 0 114.5 1t59 6t21.5 17t3 33q0 44 -37 51q-9 1 -27 2.5t-41.5 2.5t-51 1.5t-54.5 0.5zM454 267q-80 0 -122 -2t-53 -7q-13 -5 -18.5 -17.5t-5.5 -36.5q0 -23 3.5 -35.5t23 -18.5t61.5 -7t119 -1q71 0 114 3t55 9q11 5 16 17.5
t5 35.5q0 26 -7 37t-25 16q-5 1 -22 2.5t-40 2.5t-50.5 1.5t-53.5 0.5z" />
    <glyph glyph-name="nine" unicode="9" 
d="M271 194l1 -8q2 -19 6 -25t19 -11q14 -4 50 -6t86 -2q64 0 104 2t64 7t34.5 14t15.5 23q3 13 4.5 37.5t2.5 68.5q-16 -18 -35.5 -30t-49 -19t-72 -9.5t-105.5 -2.5q-109 0 -175 7.5t-101.5 31t-47 67t-11.5 115.5t13 115.5t54 67t116.5 31t201.5 7.5q76 0 132.5 -2.5
t97.5 -7.5t68.5 -14t44.5 -21q20 -14 32.5 -33.5t19.5 -55t9.5 -91t2.5 -141.5q0 -64 -2 -107t-8 -71.5t-16 -46.5t-26 -32q-12 -11 -27.5 -19.5t-36 -14.5t-48 -10.5t-63.5 -7.5q-19 -2 -47 -3.5t-60 -2.5t-67 -1.5t-67 -0.5q-55 0 -95.5 2t-70.5 6t-51 10.5t-37 15.5
q-16 10 -26.5 22t-16.5 31t-8 46.5t-2 68.5h193zM450 525q-66 0 -104 -2t-57.5 -9.5t-25 -21.5t-5.5 -39q0 -24 4.5 -38t22 -21t53 -9t97.5 -2q25 0 52 0.5t51 1.5t42.5 2t27.5 2q27 4 37.5 18.5t10.5 48.5q0 29 -7.5 42t-27.5 18q-15 4 -62.5 6.5t-108.5 2.5z" />
    <glyph glyph-name="colon" unicode=":" horiz-adv-x="327" 
d="M270 177v-177h-213v177h213zM270 473v-177h-213v177h213z" />
    <glyph glyph-name="semicolon" unicode=";" horiz-adv-x="341" 
d="M284 473v-177h-213v177h213zM284 198v-194q0 -31 -1.5 -54t-4.5 -39.5t-8 -28.5t-12 -21q-9 -12 -21 -20t-30 -12.5t-45 -6t-67 -1.5h-24.5t-27.5 1v105h15h18q27 0 39 12.5t12 41.5v19h-56v198h213z" />
    <glyph glyph-name="less" unicode="&#x3c;" horiz-adv-x="500" 
d="M466 464l-229 -131l229 -130v-192l-433 243v160l433 242v-192z" />
    <glyph glyph-name="equal" unicode="=" 
d="M780 300v-120h-653v120h653zM780 500v-120h-653v120h653z" />
    <glyph glyph-name="greater" unicode="&#x3e;" horiz-adv-x="500" 
d="M466 414v-160l-433 -243v192l229 130l-229 131v192z" />
    <glyph glyph-name="question" unicode="?" horiz-adv-x="706" 
d="M423 178v-178h-216v178h216zM13 428v34q0 60 6 91.5t22 52.5q15 20 40 33.5t64 22t94.5 12t132.5 3.5q99 0 161 -8t96.5 -30t47 -61.5t12.5 -103.5q0 -40 -4.5 -69t-15 -49.5t-27.5 -33.5t-42 -21q-12 -4 -23.5 -7t-27 -6t-37 -7t-53.5 -9q-21 -4 -33 -7t-18 -7.5t-7 -12
t-1 -19.5h-175v26q0 40 5.5 66.5t21 43.5t43 27t70.5 17q30 4 49 7.5t32 6t22 5t17 5.5q31 12 31 51q0 42 -38 51q-8 2 -18 3.5t-24.5 2t-33.5 1t-46 0.5q-39 0 -63.5 -0.5t-39 -1.5t-23 -3.5t-16.5 -6.5t-12.5 -9t-7.5 -14t-4 -23.5t-1 -37.5l-1 -15h-175z" />
    <glyph glyph-name="at" unicode="@" horiz-adv-x="953" 
d="M745 506l-19 -215v-8q0 -23 9 -30t35 -7q15 0 24.5 5.5t15 22.5t7 47.5t1.5 81.5q0 74 -7 109.5t-24 50.5q-9 7 -20.5 11.5t-36.5 7t-68 3t-114 0.5q-104 0 -165.5 -0.5t-97.5 -3t-53.5 -7t-32.5 -12.5q-17 -9 -29 -22.5t-19 -35.5t-10 -54t-3 -76q0 -53 1 -91.5t3 -65.5
t5.5 -45t8.5 -30q9 -22 28.5 -34t53.5 -19q10 -2 23 -3.5t32.5 -2.5t48.5 -1h71q97 0 154.5 1t89.5 5.5t46 13t25 23.5l85 -31q-17 -40 -44 -57q-18 -13 -41 -20.5t-63.5 -12t-105 -6t-165.5 -1.5q-59 0 -98 0.5t-65.5 3t-44 6.5t-33.5 10q-84 31 -106 115q-6 25 -10 77
t-4 114q0 68 4 116t13.5 82t25.5 57t40 41q26 20 58 30.5t78 15.5q15 1 35 2t50 2t72 1h99q74 0 124 -0.5t83 -2t53.5 -4.5t35.5 -7q82 -22 106 -104q7 -24 10 -61t3 -93q0 -39 -2 -69t-6 -52.5t-11 -39.5t-17 -31q-9 -14 -21.5 -23t-29.5 -14t-40.5 -7.5t-56.5 -2.5
q-44 0 -72 2.5t-45.5 8.5t-27 17t-14.5 28h-4q-8 -16 -19.5 -27t-30 -17.5t-45.5 -9t-66 -2.5q-59 0 -98 6t-62.5 21t-33.5 40t-10 62q0 145 57 190q13 10 28.5 17.5t36.5 11.5t48.5 6t65.5 2q36 0 60 -2.5t39.5 -8.5t26 -16.5t19.5 -27.5h4l4 46h145zM484 408
q-45 0 -69.5 -3.5t-35.5 -11.5t-16.5 -27.5t-5.5 -46.5q0 -21 6 -31t20 -15q10 -3 32.5 -5t46.5 -2q80 0 104 16q21 13 21 73q0 16 -4.5 26.5t-15.5 16.5t-31.5 8t-51.5 2z" />
    <glyph glyph-name="A" unicode="A" horiz-adv-x="984" 
d="M713 113h-441l-57 -113h-232l353 667h316l349 -667h-231zM513 512h-40l-129 -253h298z" />
    <glyph glyph-name="B" unicode="B" horiz-adv-x="908" 
d="M47 667h479q59 0 91.5 -0.5t50.5 -0.5t26.5 -0.5t19.5 -1.5q41 -3 68.5 -13t44.5 -30t24.5 -51.5t7.5 -76.5q0 -71 -20 -105t-70 -48q33 -6 55 -16.5t35.5 -29.5t19 -47t5.5 -68q0 -72 -20 -110.5t-65 -53.5q-14 -5 -26.5 -8t-39 -4.5t-74.5 -2t-132 -0.5h-480v667z
M526 404q54 0 79 1.5t35 6.5q22 9 22 47q0 40 -30 48q-4 1 -8 1.5t-14.5 0.5t-30 0.5t-53.5 0.5h-286v-106h286zM527 160q45 0 70 0.5t37.5 1t17.5 2t11 4.5q24 10 24 50q0 23 -7.5 34.5t-24.5 15.5q-4 1 -8 1.5t-16 1t-36 0.5h-68h-287v-111h287z" />
    <glyph glyph-name="C" unicode="C" horiz-adv-x="909" 
d="M884 257q1 -29 1.5 -42t0.5 -21q0 -81 -23.5 -122t-78.5 -59q-20 -6 -45 -10.5t-57.5 -7.5t-75 -4t-97.5 -1q-98 0 -165 1.5t-112 6t-73.5 12t-48.5 19.5q-33 19 -49.5 49t-22.5 81q-2 23 -3.5 65t-1.5 105q0 55 1 94.5t3 67.5t6 46.5t9 32.5q13 34 37.5 55t74.5 32.5
t132.5 15.5t213.5 4q66 0 112.5 -1.5t79.5 -5t55 -9.5t39 -15q21 -11 36 -26t24 -37t13 -52t4 -70v-33h-203q-2 29 -4 40.5t-8 19.5q-5 6 -19 10t-38.5 7t-61 4t-87.5 1q-47 0 -79 -1t-52.5 -3t-32.5 -6.5t-20 -10.5q-18 -14 -25 -49t-7 -110q0 -64 4 -99t24.5 -51.5
t64.5 -19.5t125 -3q83 0 128.5 1.5t67 11t26 30t4.5 57.5h204z" />
    <glyph glyph-name="D" unicode="D" horiz-adv-x="960" 
d="M47 667h481q64 0 103 -0.5t64.5 -1.5t43.5 -4t39 -7q100 -20 130 -113q6 -18 9.5 -36t5.5 -40.5t3 -52t1 -69.5q0 -65 -3 -112t-10.5 -80t-20 -55.5t-30.5 -39.5q-19 -17 -42 -28t-60 -17t-93 -8.5t-140 -2.5h-481v667zM530 170q69 0 108.5 4t59 20t24.5 48t5 89
q0 62 -6 93t-21 48q-8 9 -18.5 14.5t-29 8.5t-48.5 4t-76 1h-281v-330h283z" />
    <glyph glyph-name="E" unicode="E" horiz-adv-x="806" 
d="M785 667v-157h-538v-97h511v-147h-511v-106h542v-160h-742v667h738z" />
    <glyph glyph-name="F" unicode="F" horiz-adv-x="751" 
d="M752 667v-157h-502v-126h478l-1 -153h-477v-231h-203v667h705z" />
    <glyph glyph-name="G" unicode="G" horiz-adv-x="950" 
d="M916 378v-18q0 -24 -0.5 -55.5t-1.5 -62.5t-2.5 -56.5t-2.5 -37.5q-12 -116 -131 -140q-26 -5 -54 -8.5t-64.5 -5.5t-85.5 -3t-116 -1q-86 0 -144 2t-98.5 7t-66.5 14.5t-47 23.5q-22 15 -36 34t-21.5 52t-10 86t-2.5 135q0 67 3.5 115t12 81t22.5 54t35 36
q18 13 48.5 22t77 14.5t111.5 8t152 2.5q93 0 158 -3.5t110 -11.5t72 -21.5t44 -32.5q10 -12 17 -27t11.5 -35t6.5 -46.5t2 -63.5h-203q-1 29 -3.5 39t-12.5 17q-8 5 -21.5 8.5t-39 5.5t-64 3t-95.5 1q-90 0 -139 -3t-71.5 -19.5t-26.5 -51.5t-4 -100q0 -42 1.5 -70.5
t4.5 -47.5t8.5 -30t14.5 -17q6 -5 13 -8.5t17.5 -5.5t25 -3t36.5 -2l119 -2q65 0 106 0.5t66 3t37.5 6.5t19.5 10q8 8 11 22t3 53h-267v133h465z" />
    <glyph glyph-name="H" unicode="H" horiz-adv-x="979" 
d="M260 667v-239h459v239h213v-667h-213v241h-459v-241h-213v667h213z" />
    <glyph glyph-name="I" unicode="I" horiz-adv-x="307" 
d="M260 667v-667h-213v667h213z" />
    <glyph glyph-name="J" unicode="J" horiz-adv-x="750" 
d="M707 667v-399q0 -47 -2 -81t-7 -58t-13.5 -41.5t-20.5 -31.5q-17 -19 -39.5 -32t-57 -20.5t-83.5 -10.5t-119 -3q-74 0 -126.5 3t-89 9.5t-60.5 17.5t-41 27q-12 12 -21 27t-14 35.5t-7.5 47t-2.5 61.5v12.5v12.5t0.5 17.5t1.5 27.5h203q0 -27 0.5 -44.5t2.5 -29t5.5 -18
t8.5 -11.5q12 -12 41 -17t85 -5q58 0 89 5.5t45 17.5q6 5 9.5 11t6 15.5t3 23.5t0.5 36v395h203z" />
    <glyph glyph-name="K" unicode="K" horiz-adv-x="948" 
d="M250 667v-242h111l264 246h311l-386 -331l418 -340h-308l-299 255h-111v-255h-203v667h203z" />
    <glyph glyph-name="L" unicode="L" horiz-adv-x="734" 
d="M260 667v-497h474v-170h-687v667h213z" />
    <glyph glyph-name="M" unicode="M" horiz-adv-x="1224" 
d="M415 667l198 -433l199 433h366v-667h-200l5 499h-34l-251 -499h-169l-251 499h-36l5 -499h-200v667h368z" />
    <glyph glyph-name="N" unicode="N" horiz-adv-x="1021" 
d="M403 667l349 -497h21l-5 497h207v-667h-353l-351 498h-22l5 -498h-207v667h356z" />
    <glyph glyph-name="O" unicode="O" horiz-adv-x="982" 
d="M491 677q104 0 171 -2t110 -7t67.5 -14t43.5 -23q19 -15 32 -36.5t20.5 -55.5t10.5 -83.5t3 -121.5t-3 -122t-10.5 -84t-20.5 -55.5t-32 -36.5q-19 -14 -44 -23t-67.5 -14t-109 -7t-169.5 -2q-104 0 -171.5 2t-110.5 7t-68 14t-44 23q-19 15 -32 36.5t-20.5 56
t-10.5 85.5t-3 124q0 69 3.5 118t11 83t20 55.5t31.5 36.5q19 14 43.5 23t67.5 14t110 7t171 2zM491 504q-75 0 -118.5 -1t-68 -5.5t-35 -12.5t-17.5 -23q-9 -17 -12.5 -49.5t-3.5 -96.5q0 -31 1.5 -52.5t4.5 -36t9 -24t15 -16.5q10 -8 23.5 -12.5t38 -7t64 -3.5t101.5 -1
q60 0 99 1t63 3.5t37.5 7t23.5 12.5q17 13 23.5 40.5t6.5 87.5q0 36 -1 62.5t-4 45t-7.5 31t-11.5 20.5q-9 10 -20 16t-35 9t-65.5 4t-110.5 1z" />
    <glyph glyph-name="P" unicode="P" horiz-adv-x="867" 
d="M47 667h457h76t48 -1t31 -2t26 -3q47 -7 78.5 -22t50 -43t26 -71.5t7.5 -107.5q0 -56 -5.5 -95.5t-18 -67t-33 -44.5t-50.5 -28q-17 -6 -35.5 -9.5t-44.5 -5.5t-63 -3t-91 -1h-256v-163h-203v667zM504 330q35 0 55 0.5t31.5 1.5t17 3t11.5 6q14 9 19.5 25t5.5 51
q0 36 -7.5 53t-27.5 24q-5 2 -9.5 3t-14.5 1.5t-29 1t-52 0.5h-254v-170h254z" />
    <glyph glyph-name="Q" unicode="Q" horiz-adv-x="995" 
d="M952 -7l-65 47q-21 -16 -45.5 -26t-68 -15t-112 -7t-177.5 -2q-101 0 -166.5 2t-107.5 7t-67 14t-44 23q-19 15 -32 36.5t-20.5 55.5t-10.5 84t-3 121q0 72 3 122t10.5 84t20.5 55.5t32 36.5q19 14 44 23t67.5 14t109.5 7t171 2q103 0 170.5 -2t110 -7t67.5 -14t44 -23
q19 -15 32 -36.5t20.5 -56t10.5 -85.5t3 -124q0 -49 -1.5 -85t-4.5 -65l86 -44zM745 294q1 8 1 13v8q0 37 -1 63.5t-4 45t-7.5 30.5t-11.5 20q-9 10 -20.5 16t-35.5 9t-65 4t-110 1q-74 0 -118 -1t-68.5 -5.5t-35 -13t-17.5 -22.5q-9 -17 -12.5 -50t-3.5 -96
q0 -31 1.5 -52.5t5 -36t9 -24t14.5 -16.5q10 -8 23.5 -12.5t38 -7t65.5 -3.5t107 -1q37 0 63.5 0.5t46 1t34.5 2t28 3.5l-215 114l81 141z" />
    <glyph glyph-name="R" unicode="R" horiz-adv-x="900" 
d="M47 667h491q86 0 133.5 -0.5t73 -3t38 -7.5t28.5 -15q19 -12 32 -27t20.5 -37t10.5 -53t3 -74q0 -37 -2.5 -63.5t-7.5 -45.5t-14 -32t-22 -23q-14 -11 -31 -17t-47 -11q39 -5 62.5 -14.5t36 -30.5t16 -57t2.5 -94v-62h-200v35q0 28 -1 47.5t-3 32.5t-6 21.5t-10 14.5
q-5 6 -11.5 9.5t-18.5 5.5t-32 2.5t-51 0.5h-287v-169h-203v667zM536 336q38 1 59 1.5t32 1.5t15.5 3t9.5 6q12 8 17 24t5 48q0 34 -6.5 50t-22.5 23l-10.5 3.5t-15 2t-30 1t-53.5 0.5h-286v-164h286z" />
    <glyph glyph-name="S" unicode="S" horiz-adv-x="863" 
d="M220 221q0 -30 4 -42.5t16 -20.5q7 -5 16.5 -7.5t29 -4t52 -2t86.5 -0.5q59 0 95 0.5t56 1.5t29.5 3t16.5 5q21 10 21 49q0 15 -3.5 24.5t-12.5 15.5t-25 8.5t-40 2.5l-159 6q-37 1 -76.5 3t-85.5 4q-73 2 -112.5 13.5t-61.5 37.5q-19 23 -28 56t-9 84q0 146 70 185
q19 10 42.5 17t62 10.5t97.5 5t149 1.5q72 0 122.5 -2t86 -6.5t59 -12.5t41.5 -20q30 -20 43 -54t13 -94v-12.5t-1 -18.5h-196q-1 26 -4 35.5t-12 16.5q-6 5 -15 8t-29.5 4.5t-55 2t-91.5 0.5q-64 0 -101 -1.5t-55.5 -6.5t-23.5 -16t-5 -29q0 -36 30 -43q7 -2 21.5 -3.5
t39.5 -3t62.5 -3t90.5 -2.5q82 -3 134.5 -5.5t85 -6.5t51.5 -10.5t35 -16.5q34 -23 48.5 -60.5t14.5 -107.5q0 -87 -22.5 -133.5t-74.5 -65.5q-15 -6 -39.5 -9.5t-63 -6t-92.5 -3.5t-128 -1q-77 0 -132.5 2t-94.5 6.5t-64.5 12t-43.5 18.5q-17 11 -29 24.5t-19 32t-10 43.5
t-3 60v32h197z" />
    <glyph glyph-name="T" unicode="T" horiz-adv-x="807" 
d="M807 667v-170h-297v-497h-213v497h-297v170h807z" />
    <glyph glyph-name="U" unicode="U" horiz-adv-x="953" 
d="M246 667v-307q1 -39 1.5 -61t1 -34.5t1.5 -20t3 -17.5q4 -20 15 -32.5t35.5 -19.5t66 -9.5t106.5 -2.5q52 0 87.5 1.5t58.5 4.5t36.5 9t21.5 15q6 6 10 13.5t7 18.5t4.5 26.5t2.5 39.5q1 17 1.5 37.5t0.5 31.5v307h203v-307q-1 -57 -2 -90t-2 -53.5t-2.5 -34l-3.5 -31.5
q-8 -57 -44.5 -95t-93.5 -50q-23 -5 -48.5 -8t-58.5 -4.5t-75.5 -2.5t-99.5 -1q-95 0 -160 3t-108.5 10.5t-70.5 20.5t-46 33q-12 13 -20.5 27.5t-14.5 35t-9 47t-5 63.5q0 8 -0.5 14.5t-0.5 18.5t-0.5 34t-0.5 63v307h203z" />
    <glyph glyph-name="V" unicode="V" horiz-adv-x="940" 
d="M210 667l243 -499h39l240 499h222l-326 -667h-311l-330 667h223z" />
    <glyph glyph-name="W" unicode="W" horiz-adv-x="1378" 
d="M194 667l179 -499h37l151 499h245l152 -499h38l180 499h215l-259 -667h-313l-134 489l-132 -489h-315l-251 667h207z" />
    <glyph glyph-name="X" unicode="X" horiz-adv-x="1000" 
d="M297 667l205 -234l207 234h281l-320 -330l336 -337h-285l-219 240l-217 -240h-292l341 337l-315 330h278z" />
    <glyph glyph-name="Y" unicode="Y" horiz-adv-x="917" 
d="M247 667l217 -267l208 267h265l-365 -431v-236h-210v236l-382 431h267z" />
    <glyph glyph-name="Z" unicode="Z" horiz-adv-x="865" 
d="M830 667v-153l-488 -354l503 7v-167h-825v156l482 351l-471 -7v167h799z" />
    <glyph glyph-name="bracketleft" unicode="[" horiz-adv-x="393" 
d="M357 680v-125h-132v-483h132v-125h-310v733h310z" />
    <glyph glyph-name="backslash" unicode="\" horiz-adv-x="612" 
d="M94 811l552 -955h-127l-552 955h127z" />
    <glyph glyph-name="bracketright" unicode="]" horiz-adv-x="393" 
d="M346 -53h-310v125h132v483h-132v125h310v-733z" />
    <glyph glyph-name="asciicircum" unicode="^" horiz-adv-x="500" 
d="M5 336l138 336h213l138 -336h-168l-76 206l-77 -206h-168z" />
    <glyph glyph-name="underscore" unicode="_" horiz-adv-x="500" 
d="M500 -40v-120h-500v120h500z" />
    <glyph glyph-name="grave" unicode="`" horiz-adv-x="500" 
d="M352 573l-45 -58l-251 142l90 121z" />
    <glyph glyph-name="a" unicode="a" horiz-adv-x="700" 
d="M44 325q4 52 22.5 82.5t60.5 50.5q30 14 93.5 21t170.5 7q58 0 96 -1.5t63.5 -7t41.5 -14.5t31 -24q11 -12 19 -25.5t12.5 -31.5t6.5 -41.5t2 -55.5v-285h-170v65h-8q-11 -23 -26 -37t-39 -24q-11 -5 -26 -8t-37 -4.5t-52.5 -2.5t-73.5 -1q-59 0 -98.5 7t-63.5 24.5
t-34 46t-10 70.5q0 64 24.5 100.5t76.5 50.5q15 4 33.5 7t44 4.5t59.5 2t82 0.5q30 0 51 -1.5t36 -5.5t25.5 -11.5t20.5 -18.5h8v25q0 27 -4 43.5t-16.5 25.5t-36.5 11.5t-64 2.5q-48 0 -75.5 -1.5t-42.5 -6t-20 -14t-7 -25.5h-176zM339 201q-40 0 -66.5 -2.5t-42 -8
t-22 -15t-6.5 -24.5t6 -24.5t20 -15t37.5 -8t58.5 -2.5q46 0 76.5 2.5t49 8.5t26 16.5t7.5 26.5q0 30 -31 41q-8 3 -33.5 4t-79.5 1z" />
    <glyph glyph-name="b" unicode="b" horiz-adv-x="734" 
d="M217 667v-257h8q13 22 29.5 36.5t39 23.5t54 12.5t75.5 3.5q87 0 140 -10.5t84 -33.5q17 -13 28.5 -29.5t18.5 -40t10 -56t3 -78.5q0 -44 -2.5 -76t-8.5 -55.5t-16 -40t-25 -29.5q-29 -26 -82.5 -37.5t-144.5 -11.5q-50 0 -84 3.5t-58 12t-40.5 22.5t-29.5 36h-9v-62
h-167v667h177zM374 353q-50 0 -80.5 -4.5t-47.5 -17t-23 -35t-6 -58.5q0 -43 5.5 -63.5t19.5 -30.5q32 -23 136 -23q95 0 125 21q15 11 21 32.5t6 66.5q0 47 -9 68t-33 30q-17 7 -47.5 10.5t-66.5 3.5z" />
    <glyph glyph-name="c" unicode="c" horiz-adv-x="699" 
d="M674 190q-2 -59 -11.5 -90t-32.5 -54q-17 -17 -38 -28.5t-53.5 -18t-80 -9t-117.5 -2.5q-54 0 -94 2t-69.5 7t-50.5 13.5t-39 21.5q-17 12 -29 28.5t-19 40.5t-10 58t-3 81q0 43 3 74.5t9.5 54.5t17 39.5t26.5 29.5q17 14 38.5 23t52.5 14.5t73.5 8t102.5 2.5
q58 0 101.5 -2.5t75.5 -8.5t54.5 -15.5t39.5 -22.5q14 -11 24 -24.5t16 -31.5t9.5 -42.5t4.5 -57.5h-180q-2 20 -10.5 34t-25.5 22.5t-43.5 12t-65.5 3.5q-46 0 -74.5 -4.5t-44.5 -17.5t-21.5 -36.5t-5.5 -60.5q0 -46 9.5 -67.5t32.5 -31.5q16 -7 44 -10.5t63 -3.5
q38 0 64 3t42 11t24 21.5t11 33.5h180z" />
    <glyph glyph-name="d" unicode="d" horiz-adv-x="733" 
d="M693 0h-167v62h-9q-13 -21 -29.5 -35.5t-40.5 -23t-58 -12t-82 -3.5t-84 2.5t-63.5 8.5t-47.5 15.5t-35 23.5q-15 13 -24.5 30t-15.5 40.5t-8.5 55.5t-2.5 76q0 45 4 79t12 59t21.5 42.5t32.5 29.5q16 10 34 17t43 11.5t58 6t78 1.5q47 0 79.5 -3.5t55 -12t37.5 -23.5
t28 -37h7v257h177v-667zM367 353q-52 0 -84 -4t-50 -16t-24 -34t-6 -57q0 -39 5.5 -63t21.5 -37t46 -17t80 -4q49 0 83.5 5.5t50.5 16.5q15 11 21 31.5t6 61.5q0 37 -5.5 60t-22 35.5t-45.5 17t-77 4.5z" />
    <glyph glyph-name="e" unicode="e" horiz-adv-x="693" 
d="M663 151q-5 -49 -21.5 -80.5t-54 -50t-99 -25.5t-156.5 -7q-51 0 -90 2.5t-68 7.5t-50 13.5t-37 20.5q-17 13 -28.5 29.5t-18.5 40t-10 56t-3 77.5q0 48 3 81.5t10.5 57.5t20 40.5t30.5 29.5q17 12 38 20t51 13t71.5 7t98.5 2q60 0 102 -2t71.5 -7.5t49.5 -14t36 -21.5
q31 -26 44.5 -70.5t13.5 -124.5v-19t-1 -29h-462q0 -36 4.5 -51.5t17.5 -25.5q26 -20 120 -20q42 0 68.5 2t41.5 7.5t21.5 15t9.5 25.5h176zM489 295q-1 28 -3.5 38.5t-10.5 18.5q-12 13 -41 18.5t-81 5.5q-45 0 -73.5 -3.5t-45 -12.5t-23 -24.5t-7.5 -40.5h285z" />
    <glyph glyph-name="f" unicode="f" horiz-adv-x="435" 
d="M0 473h91q1 38 3.5 63t7.5 42.5t13.5 30t22.5 24.5q14 13 30.5 22t40 14.5t55 7.5t75.5 2q25 0 42.5 -0.5t46.5 -2.5v-117q-13 0 -20.5 0.5t-12 0.5h-7.5h-7q-74 0 -95 -20q-10 -9 -13.5 -22t-4.5 -45h174v-127h-174v-346h-177v346h-91v127z" />
    <glyph glyph-name="g" unicode="g" horiz-adv-x="731" 
d="M694 473v-435q0 -30 -0.5 -48.5t-2 -32t-4.5 -24.5t-8 -26q-12 -34 -39 -60t-62 -38q-39 -14 -93 -19.5t-138 -5.5q-56 0 -97 2.5t-71 8.5t-51 16t-37 25q-24 21 -36 49.5t-16 71.5h180l2 -5q4 -14 11.5 -22.5t22 -13.5t37.5 -7t58 -2t59.5 1.5t41.5 5t28 9.5t19 15
q6 7 10 14.5t6.5 18t3 26.5t0.5 41v42h-7q-14 -22 -29.5 -36t-38 -22.5t-53.5 -12t-75 -3.5q-93 0 -145 10t-82 33q-18 13 -29.5 30t-18.5 40.5t-10 55.5t-3 77q0 48 5 83t16.5 59.5t30.5 41t47 27.5q27 11 75.5 16.5t115.5 5.5q46 0 78 -3.5t55 -11.5t39 -22.5t30 -36.5h8
v62h167zM367 352q-51 0 -83 -4t-49.5 -15.5t-24 -32t-6.5 -53.5q0 -34 6 -55t23 -33t47 -16t79 -4q102 0 133 23q14 11 19.5 29t5.5 54q0 43 -8 63t-29 29q-16 8 -45.5 11.5t-67.5 3.5z" />
    <glyph glyph-name="h" unicode="h" horiz-adv-x="718" 
d="M217 667v-266h8q22 45 68.5 65t130.5 20q79 0 126.5 -13.5t78.5 -45.5q15 -16 25 -33t16 -39.5t8.5 -52t2.5 -71.5v-231h-177v231q0 39 -5 62.5t-20 37t-42 18t-70 4.5q-47 0 -76 -6t-45.5 -22.5t-22.5 -46t-6 -76.5v-202h-177v667h177z" />
    <glyph glyph-name="i" unicode="i" horiz-adv-x="257" 
d="M217 667v-133h-177v133h177zM217 473v-473h-177v473h177z" />
    <glyph glyph-name="j" unicode="j" horiz-adv-x="281" 
d="M242 667v-133h-177v133h177zM242 473v-444q0 -36 -0.5 -58.5t-3 -38t-6 -26t-9.5 -21.5q-20 -35 -60.5 -50t-120.5 -15h-26.5t-28.5 2v121q10 -1 14.5 -1h9.5q18 0 28.5 4t16 16t7.5 34t2 58v419h177z" />
    <glyph glyph-name="k" unicode="k" horiz-adv-x="667" 
d="M217 667v-348h38l162 154h237l-245 -220l278 -253h-235l-190 190h-45v-190h-177v667h177z" />
    <glyph glyph-name="l" unicode="l" horiz-adv-x="257" 
d="M217 667v-667h-177v667h177z" />
    <glyph glyph-name="m" unicode="m" horiz-adv-x="1109" 
d="M207 473v-71h9q20 43 66.5 63t124.5 20q85 0 135.5 -23t79.5 -76q22 53 69.5 76t134.5 23q73 0 119.5 -14.5t77.5 -46.5q15 -16 25 -32.5t15.5 -39t7.5 -54t2 -77.5v-221h-177v221q0 30 -1 47.5t-3 28t-6 17t-10 12.5q-14 14 -37.5 20t-62.5 6q-77 0 -105 -30
q-8 -8 -13 -18t-8 -24.5t-4 -35t-1 -49.5v-195h-177v221q0 28 -0.5 45t-2.5 28.5t-6 18t-10 13.5q-24 26 -98 26q-79 0 -108 -29q-8 -8 -13 -18t-8 -24.5t-4 -35.5t-1 -50v-195h-177v473h167z" />
    <glyph glyph-name="n" unicode="n" horiz-adv-x="719" 
d="M207 473v-72h9q12 23 29 39t41 26t56 14.5t75 4.5q42 0 74.5 -3t58 -10.5t45 -19t35.5 -27.5q16 -17 26 -33.5t16 -39.5t8 -55.5t2 -81.5v-215h-177v215q0 28 -1 46.5t-3 30.5t-6.5 19.5t-11.5 14.5q-14 14 -42 20t-77 6t-77 -7t-44 -24q-8 -9 -13 -18.5t-8 -24t-4 -35.5
t-1 -54v-189h-177v473h167z" />
    <glyph glyph-name="o" unicode="o" horiz-adv-x="723" 
d="M362 485q60 0 104 -2t76.5 -7.5t54.5 -13.5t39 -20q18 -13 29.5 -29t18.5 -38.5t10 -54t3 -75.5q0 -48 -2.5 -82t-9 -58t-17 -40.5t-26.5 -29.5q-17 -14 -38.5 -23t-53 -14.5t-77 -7.5t-110.5 -2q-66 0 -111.5 2t-77.5 7.5t-53.5 14.5t-38.5 23q-17 13 -27.5 29.5
t-16.5 41t-8.5 60t-2.5 86.5q0 41 3 71t10 52.5t19 38t29 28.5q16 12 38.5 20t55 13.5t76.5 7.5t104 2zM363 352q-50 0 -81.5 -4.5t-48.5 -17t-23 -36t-6 -61.5q0 -47 8.5 -67t31.5 -30q33 -15 119 -15q50 0 81 4t48 17t22.5 35.5t5.5 60.5q0 47 -9 68.5t-34 31.5
q-17 7 -46.5 10.5t-67.5 3.5z" />
    <glyph glyph-name="p" unicode="p" horiz-adv-x="734" 
d="M40 473h167v-64h9q12 22 28 36.5t41 23.5t61 12.5t87 3.5q91 0 143 -12t82 -40q14 -13 23.5 -29t15 -39t8 -54.5t2.5 -76.5q0 -77 -11 -125t-42 -75t-86 -36.5t-143 -9.5q-45 0 -77 3.5t-55 12t-39 22.5t-29 35h-8v-258h-177v670zM380 352q-53 0 -85.5 -4t-49.5 -17
t-22.5 -37t-5.5 -63q0 -34 6 -55.5t23.5 -33.5t48 -16.5t79.5 -4.5q102 0 129 21q16 11 21.5 33t5.5 69q0 34 -5.5 55t-22 33t-46 16t-76.5 4z" />
    <glyph glyph-name="q" unicode="q" horiz-adv-x="733" 
d="M517 -197v258h-8q-15 -22 -31 -36t-38.5 -22.5t-53.5 -11.5t-76 -3q-50 0 -87 2.5t-64.5 8.5t-47 16t-35.5 24q-14 12 -23 28t-15 38.5t-8.5 52.5t-2.5 70q0 81 11 131.5t42 78t87 37.5t146 10q47 0 79.5 -3.5t55.5 -12t39.5 -23.5t30.5 -37h9v64h167v-670h-177zM357 352
q-50 0 -80 -4t-46.5 -17.5t-21.5 -38t-5 -64.5q0 -42 7 -60.5t27 -29.5q32 -17 121 -17q51 0 82 4t48 16.5t22.5 35.5t5.5 60t-6 59.5t-23 35t-48.5 16.5t-82.5 4z" />
    <glyph glyph-name="r" unicode="r" horiz-adv-x="596" 
d="M207 473v-71h9q25 45 66.5 64t115.5 19q53 0 89.5 -9.5t59 -32t32.5 -59t10 -89.5v-32h-167v1v4q0 25 -4 39t-12 23q-20 22 -78 22q-29 0 -52.5 -9t-36.5 -25q-6 -9 -10.5 -18.5t-7 -23.5t-3.5 -33.5t-1 -46.5v-196h-177v473h167z" />
    <glyph glyph-name="s" unicode="s" horiz-adv-x="703" 
d="M205 151q1 -15 8.5 -25.5t25 -16.5t45 -8.5t69.5 -2.5q43 0 71.5 2t45.5 7t24 13.5t7 21.5q0 30 -41 35q-9 1 -23.5 1.5t-41.5 1t-69.5 0.5h-107.5q-101 2 -145.5 35.5t-44.5 109.5q0 107 82 138q29 11 90 16.5t155 5.5q60 0 102.5 -2t72.5 -7t50 -13.5t35 -21.5
q19 -15 27 -37t11 -65h-180q-5 19 -12 22q-23 14 -111 14q-83 0 -114 -8.5t-31 -30.5q0 -28 43 -31q11 -1 24 -1.5t38.5 -1t67.5 -1t111 -0.5q51 0 87 -8.5t58.5 -26t33 -45.5t10.5 -67q0 -107 -77 -139q-32 -14 -96.5 -20.5t-164.5 -6.5q-65 0 -109.5 2.5t-75.5 8t-51.5 15
t-36.5 23.5q-22 20 -31.5 46t-10.5 68h180z" />
    <glyph glyph-name="t" unicode="t" horiz-adv-x="579" 
d="M270 582v-109h280v-127h-280v-138q0 -19 0.5 -30.5t1 -19t2.5 -12t5 -9.5q7 -12 21 -17.5t40 -5.5q21 0 35 3t22 10.5t11 21t3 34.5v19h162q-1 -34 -3 -57t-6 -40.5t-10.5 -30.5t-16.5 -26q-14 -17 -31.5 -28t-42.5 -18.5t-58.5 -10.5t-79.5 -3q-42 0 -73 2t-53.5 7
t-38.5 13.5t-29 21.5q-19 19 -27 41.5t-10 63.5q0 4 -0.5 7.5t-0.5 10.5v19v34v138h-93v127h93v109h177z" />
    <glyph glyph-name="u" unicode="u" horiz-adv-x="717" 
d="M511 0v71h-9q-20 -45 -66.5 -64t-135.5 -19q-82 0 -130.5 14t-80.5 46q-16 16 -26 32.5t-16 39.5t-8 55.5t-2 80.5v217h177v-217q0 -26 1 -43.5t4 -29.5t7.5 -20.5t11.5 -15.5q15 -15 40 -20.5t75 -5.5q47 0 73.5 6t43.5 21q9 8 15 17.5t9.5 24.5t5 37.5t1.5 55.5v190
h177v-473h-167z" />
    <glyph glyph-name="v" unicode="v" horiz-adv-x="668" 
d="M188 473l147 -336l146 336h201l-233 -473h-229l-233 473h201z" />
    <glyph glyph-name="w" unicode="w" horiz-adv-x="995" 
d="M177 473l108 -344l126 344h168l127 -338l111 338h188l-175 -473h-241l-93 278l-95 -278h-236l-175 473h187z" />
    <glyph glyph-name="x" unicode="x" horiz-adv-x="684" 
d="M245 473l89 -126h8l95 126h227l-190 -219l210 -254h-227l-113 160h-9l-116 -160h-219l203 245l-196 228h238z" />
    <glyph glyph-name="y" unicode="y" horiz-adv-x="649" 
d="M181 473l135 -344l150 344h196l-252 -534q-18 -39 -29 -61t-19 -34t-15.5 -18t-18.5 -13q-22 -14 -52.5 -20t-76.5 -6q-58 0 -76 3v121l8 1h32q22 0 37.5 3t27 13t21 27.5t20.5 44.5h-71l-211 473h194z" />
    <glyph glyph-name="z" unicode="z" horiz-adv-x="609" 
d="M582 473v-135l-292 -215h302v-123h-575v122l304 231h-283v120h544z" />
    <glyph glyph-name="braceleft" unicode="{" horiz-adv-x="393" 
d="M365 565q-30 -1 -49.5 -6.5t-31.5 -17.5t-17 -32t-5 -50q1 -40 -1.5 -65t-11.5 -40t-25.5 -22t-43.5 -11v-9q27 -5 43.5 -11.5t25 -21t11.5 -40.5t3 -69q0 -30 5 -50t16.5 -32t31 -17.5t49.5 -6.5v-127q-52 0 -87 1.5t-59 5t-40.5 10t-31.5 17.5q-18 15 -29.5 31.5
t-18.5 42t-10 64t-4 97.5q-2 30 -13.5 39.5t-44.5 10.5v122q21 1 33 3.5t18 9.5t7.5 21.5t2.5 39.5q0 75 11 122t41.5 73t84.5 34.5t140 7.5v-124z" />
    <glyph glyph-name="bar" unicode="|" horiz-adv-x="500" 
d="M347 667v-834h-194v834h194z" />
    <glyph glyph-name="braceright" unicode="}" horiz-adv-x="393" 
d="M28 689q86 1 140 -7.5t84.5 -34.5t41.5 -73t11 -122q1 -25 2.5 -39.5t7.5 -21.5t18 -9.5t33 -3.5v-122q-21 -1 -33 -3.5t-17.5 -14t-7 -36t-2.5 -68.5q-2 -41 -8 -71.5t-17.5 -52t-29.5 -35.5t-43 -23q-15 -5 -29.5 -7.5t-34 -4.5t-47 -2.5t-69.5 -0.5v127q30 1 49.5 6.5
t31 17.5t16.5 32t5 50q0 43 3 69t11.5 40.5t25 21t43.5 11.5v9q-27 4 -43.5 11t-25.5 22t-11.5 40t-1.5 65q0 30 -5 50t-17 32t-31.5 17.5t-49.5 6.5v124z" />
    <glyph glyph-name="asciitilde" unicode="~" horiz-adv-x="667" 
d="M92 613q30 78 67.5 114.5t88.5 36.5q10 0 19.5 -1t23.5 -5.5t35.5 -12.5t56.5 -21q29 -11 44 -11q18 0 30 11t29 42l92 -77q-15 -38 -26 -58.5t-25 -37.5q-45 -56 -106 -56q-8 0 -16.5 1.5t-22.5 6t-35 12t-52 19.5q-22 8 -32.5 11t-20.5 3q-17 0 -29 -11.5t-29 -43.5z
" />
    <glyph glyph-name="uni00A0" unicode="&#xa0;" horiz-adv-x="250" 
 />
    <glyph glyph-name="exclamdown" unicode="&#xa1;" horiz-adv-x="333" 
d="M55 458v209h224v-209h-224zM67 0v381h200v-381h-200z" />
    <glyph glyph-name="cent" unicode="&#xa2;" horiz-adv-x="800" 
d="M453 -27h-109v83q-54 1 -90 3t-60.5 5.5t-41.5 9t-32 13.5q-21 12 -34 27t-20 42t-9.5 69.5t-2.5 108.5q0 83 3.5 124.5t11.5 62.5q16 40 53.5 59t111.5 25q19 2 42 3t68 2v83h109v-82q42 0 67 -0.5t41.5 -1.5t29 -2.5t29.5 -4.5q62 -11 89 -50t27 -118v-16t-1 -24h-182
q0 22 -1.5 34.5t-10 18.5t-25.5 7t-47 0l-16 1v-240h15q32 0 50 1t27 7t11.5 17.5t3.5 32.5l1 14h182q0 -15 0.5 -24t0.5 -14.5v-9.5v-9q0 -71 -20 -106t-68 -50q-16 -5 -34 -8.5t-41.5 -5.5t-54.5 -3.5t-73 -1.5v-82zM344 454q-26 0 -41.5 -0.5t-24.5 -2t-14 -4.5t-9 -7
q-10 -10 -14 -35.5t-4 -79.5q0 -46 4 -67t15 -31q4 -4 9 -6t14 -3.5t24 -2t41 -0.5v239z" />
    <glyph glyph-name="sterling" unicode="&#xa3;" 
d="M134 373v37q0 55 2.5 92t9 62t18 41t29.5 29q17 13 38 21t54 12.5t82 6t123 1.5q75 0 129 -1.5t92 -5.5t63 -11t42 -17q35 -20 50 -54t15 -96q0 -5 -0.5 -21t-1.5 -33h-190q0 29 -4.5 46t-21 25.5t-49.5 11t-89 2.5q-71 0 -110 -2t-57.5 -12.5t-22 -33t-3.5 -63.5v-37
h278v-122h-278v-7q0 -30 -12 -50t-41 -36h614v-158h-831v155q29 1 39 3.5t18 13.5q8 10 11.5 24.5t3.5 40.5v14h-108v122h108z" />
    <glyph glyph-name="currency" unicode="&#xa4;" 
d="M722 467q6 -12 9.5 -23t5.5 -25t2.5 -33t0.5 -47q0 -29 -1 -50.5t-3 -37.5t-5 -28t-8 -24l82 -83l-84 -84l-99 98q-15 -3 -31.5 -4.5t-36 -2.5t-44 -1.5t-56.5 -0.5t-57 0.5t-44.5 1.5t-35.5 2.5t-31 4.5l-99 -98l-85 84l83 83q-5 12 -8.5 24.5t-5.5 28.5t-3 36.5
t-1 49.5q0 28 0.5 47.5t2.5 33.5t5.5 25t9.5 23l-83 83l85 85l99 -99q30 5 70 7.5t98 2.5t97.5 -2.5t69.5 -7.5l100 99l84 -85zM455 443q-48 0 -78 -4.5t-46.5 -16.5t-22 -34t-5.5 -57q0 -23 1.5 -38.5t6 -26t12 -17t18.5 -11.5q34 -14 114 -14q48 0 77 4t45 16t21.5 33.5
t5.5 57.5q0 45 -9 65.5t-32 29.5q-15 6 -44 9.5t-64 3.5z" />
    <glyph glyph-name="yen" unicode="&#xa5;" 
d="M830 464v-95h-171l-56 -78h227v-95h-266v-196h-203v196h-283v95h242l-59 78h-183v95h111l-152 203h246l177 -268l168 268h243l-144 -203h103z" />
    <glyph glyph-name="brokenbar" unicode="&#xa6;" horiz-adv-x="500" 
d="M347 153v-320h-194v320h194zM347 667v-363h-194v363h194z" />
    <glyph glyph-name="section" unicode="&#xa7;" 
d="M598 570q0 28 -3 43.5t-17.5 22.5t-45.5 8.5t-88 1.5q-48 0 -76.5 -1.5t-43.5 -6t-19 -13.5t-4 -24q0 -22 12.5 -31t53.5 -14l264 -34q50 -6 82.5 -17t51 -30.5t26 -49t7.5 -74.5q0 -32 -2.5 -54.5t-8.5 -38t-16.5 -26t-26.5 -18.5q16 -7 27 -15.5t17.5 -22t9 -32.5
t2.5 -46q0 -63 -13.5 -101t-42.5 -58q-18 -13 -42 -21t-60 -13t-88.5 -7t-127.5 -2q-44 0 -75.5 1t-55 3t-40.5 5.5t-32 9.5q-29 10 -47.5 25.5t-30 39t-16 58t-4.5 84.5h163q1 -31 6 -48.5t22 -26t51 -10.5t94 -2q54 0 85.5 1.5t48 7.5t21 17t4.5 30q0 25 -13 35t-55 15
l-320 43q-39 5 -63.5 14t-38.5 26.5t-19 45.5t-5 72q0 63 13.5 91.5t49.5 40.5q-14 11 -23.5 22.5t-14.5 27t-7 36t-2 50.5q0 65 20 99.5t69 52.5q18 6 41 10.5t57 7.5t80 4t111 1q42 0 72.5 -1.5t53 -4.5t39.5 -8.5t32 -13.5q38 -21 55 -56t17 -92v-39h-171zM578 273
q11 -2 19.5 -2.5t13.5 -0.5q44 0 44 67q0 16 -3.5 26.5t-12.5 17t-25.5 10.5t-43.5 7l-215 25q-18 2 -29.5 3.5t-13.5 1.5q-47 0 -47 -66q0 -16 2.5 -26t9.5 -16.5t20 -10t33 -6.5z" />
    <glyph glyph-name="dieresis" unicode="&#xa8;" horiz-adv-x="500" 
d="M470 697v-127h-187v127h187zM217 697v-127h-187v127h187z" />
    <glyph glyph-name="copyright" unicode="&#xa9;" horiz-adv-x="921" 
d="M732 294q2 -21 2 -29v-13q0 -39 -9 -63.5t-35.5 -38t-74 -18.5t-124.5 -5q-62 0 -104.5 1t-71 3.5t-46.5 7t-31 11.5q-17 9 -27 20t-15 30t-7 50t-2 79q0 33 0.5 56.5t2 40.5t4 28.5t6.5 19.5q9 20 24.5 33t47.5 20t85 9.5t136 2.5q41 0 70.5 -1t50.5 -3t35.5 -5.5
t25.5 -8.5q28 -14 39.5 -39t11.5 -73v-25h-138q-1 20 -2 25.5t-4 10.5q-5 6 -35 8.5t-90 2.5q-50 0 -76.5 -1.5t-39 -11t-14.5 -30t-2 -57.5q0 -36 2 -55.5t15 -28.5t41.5 -10.5t80.5 -1.5q49 0 75.5 1t38.5 6.5t14.5 17.5t2.5 34h137zM479 677q88 0 147.5 -2.5t99.5 -9
t64 -17t41 -26.5q22 -21 32.5 -50.5t16.5 -84.5q1 -13 2.5 -32t2.5 -40t1.5 -43t0.5 -41q0 -63 -3 -109.5t-9 -80.5t-16 -57.5t-24 -38.5q-15 -16 -38.5 -26.5t-61 -17t-92.5 -9t-133 -2.5q-271 0 -350 17q-42 9 -72 38.5t-40 71.5q-8 34 -11.5 85.5t-3.5 133.5
q0 69 3.5 118t11 83.5t20.5 56.5t32 37q13 10 27 16.5t32.5 11.5t43.5 8t60 5q15 1 42.5 1.5t58.5 1.5t62 1.5t53 0.5zM428 605q-77 0 -130.5 -1.5t-88.5 -9.5t-54 -24.5t-28.5 -45.5t-11.5 -74t-2 -109q0 -59 1.5 -99.5t5 -67.5t10 -43.5t16.5 -26.5q9 -9 19 -15t24 -10
t33.5 -6.5t46.5 -4.5q7 0 35.5 -1t62 -2t62.5 -1.5t37 -0.5q41 0 81.5 1t75 3t61 4.5t39.5 5.5q26 6 45 25.5t26 46.5q6 28 9.5 78t3.5 113t-3.5 112t-8.5 73q-6 27 -27 45.5t-52 24.5q-16 3 -38 4.5t-55.5 3t-81 2t-113.5 0.5z" />
    <glyph glyph-name="ordfeminine" unicode="&#xaa;" horiz-adv-x="488" 
d="M46 467q5 55 55 77q37 17 170 17q37 0 61 -1t40 -4.5t26.5 -9t20.5 -14.5q16 -14 21.5 -34.5t5.5 -59.5v-171h-117v37h-7q-5 -14 -12.5 -22.5t-23.5 -13.5t-43 -6.5t-69 -1.5q-50 0 -75.5 5.5t-40.5 19.5q-24 21 -24 62q0 61 53 82q18 8 47.5 10.5t86.5 2.5q24 0 40 -1
t26.5 -3.5t17.5 -7.5t13 -13h7v23q0 15 -2 24t-9.5 13.5t-22.5 6t-40 1.5q-26 0 -41.5 -0.5t-24 -2.5t-12.5 -5.5t-6 -9.5h-121zM237 385q-47 0 -64 -6.5t-17 -24.5q0 -17 15 -23.5t59 -6.5q53 0 73 7t20 27q0 17 -16 23q-5 2 -21 3t-49 1z" />
    <glyph glyph-name="guillemotleft" unicode="&#xab;" horiz-adv-x="643" 
d="M550 346l-53 -68l112 -202l-142 -76l-154 278l128 156zM274 362l-59 -79l116 -206l-143 -77l-155 282l130 165z" />
    <glyph glyph-name="logicalnot" unicode="&#xac;" horiz-adv-x="500" 
d="M278 129h-245v169h433v-298h-188v129z" />
    <glyph glyph-name="uni00AD" unicode="&#xad;" horiz-adv-x="422" 
d="M422 307v-135h-422l1 135h421z" />
    <glyph glyph-name="registered" unicode="&#xae;" horiz-adv-x="921" 
d="M194 533h314q55 0 85 -0.5t46.5 -2t24.5 -4.5t19 -9q25 -14 34.5 -38.5t9.5 -75.5q0 -32 -3 -52t-11.5 -32.5t-23 -19t-37.5 -9.5q32 -5 45 -12.5t19 -24.5q2 -5 3 -10t2 -13.5t1 -21v-33.5v-42h-136v26q0 27 -1 42t-8.5 22t-23.5 8.5t-46 1.5h-175v-100h-138v400z
M507 340q23 0 36 0.5t19.5 1t9 1.5t5.5 3q12 7 12 38q0 18 -3.5 26.5t-12.5 11.5q-3 1 -5.5 2t-9 1.5t-18.5 0.5h-33h-175v-86h175zM479 677q88 0 147.5 -2.5t99.5 -9t64 -17t41 -26.5q22 -21 32.5 -50.5t16.5 -84.5q1 -13 2.5 -32t2.5 -40t1.5 -43t0.5 -41q0 -63 -3 -109.5
t-9 -80.5t-16 -57.5t-24 -38.5q-15 -16 -38.5 -26.5t-61 -17t-92.5 -9t-133 -2.5q-271 0 -350 17q-42 9 -72 38.5t-40 71.5q-8 34 -11.5 85.5t-3.5 133.5q0 69 3.5 118t11 83.5t20.5 56.5t32 37q13 10 27 16.5t32.5 11.5t43.5 8t60 5q15 1 42.5 1.5t58.5 1.5t62 1.5t53 0.5z
M428 605q-77 0 -130.5 -1.5t-88.5 -9.5t-54 -24.5t-28.5 -45.5t-11.5 -74t-2 -109q0 -59 1.5 -99.5t5 -67.5t10 -43.5t16.5 -26.5q9 -9 19 -15t24 -10t33.5 -6.5t46.5 -4.5q7 0 35.5 -1t62 -2t62.5 -1.5t37 -0.5q41 0 81.5 1t75 3t61 4.5t39.5 5.5q26 6 45 25.5t26 46.5
q6 28 9.5 78t3.5 113t-3.5 112t-8.5 73q-6 27 -27 45.5t-52 24.5q-16 3 -38 4.5t-55.5 3t-81 2t-113.5 0.5z" />
    <glyph glyph-name="macron" unicode="&#xaf;" horiz-adv-x="500" 
d="M467 685v-103h-434v103h434z" />
    <glyph glyph-name="degree" unicode="&#xb0;" horiz-adv-x="500" 
d="M266 669q54 0 86 -5t49 -17q10 -6 16 -15t10 -23.5t5.5 -36.5t1.5 -55q0 -34 -2 -56t-6.5 -36.5t-13 -23.5t-21.5 -15q-19 -8 -55.5 -12t-100.5 -4q-54 0 -83.5 4t-46.5 14q-12 7 -19 16t-11.5 24.5t-6 38.5t-1.5 59q0 33 2 55t8 37t16 23.5t25 14.5q37 13 148 13z
M244 589q-24 0 -39.5 -3t-24 -10.5t-12 -20.5t-3.5 -34q0 -24 2.5 -38t11 -21.5t25 -9.5t44.5 -2q29 0 46 2.5t26 10t11.5 22.5t2.5 40q0 20 -3.5 32.5t-13 19.5t-27.5 9.5t-46 2.5z" />
    <glyph glyph-name="plusminus" unicode="&#xb1;" 
d="M780 113v-113h-653v113h653zM127 345v120h267v208h120v-208h266v-120h-266v-208h-120v208h-267z" />
    <glyph glyph-name="uni00B2" unicode="&#xb2;" horiz-adv-x="585" 
d="M37 529q-1 5 -1 8.5v4.5q0 53 14.5 79.5t50.5 37.5q12 4 28.5 6.5t40.5 4t57 2t78 0.5q55 0 89.5 -0.5t56 -3t33.5 -6t22 -9.5q21 -14 30 -37t9 -68t-10 -70t-33 -38q-11 -6 -21 -10t-30 -7t-54 -5.5t-92 -6.5q-40 -2 -63.5 -3.5t-36.5 -3t-18 -3t-8 -3.5
q-7 -6 -8.5 -12.5t-1.5 -27.5h379v-91h-505q-2 17 -2 25.5v23.5q0 51 2.5 77.5t7.5 40.5q11 28 34.5 41.5t74.5 19.5q4 0 48.5 3.5t131.5 9.5q27 2 42.5 4t23 5.5t9.5 9.5t2 17q0 12 -2 18.5t-13 10t-34 4t-64 0.5q-37 0 -61 -0.5t-38.5 -1.5t-21 -2.5t-8.5 -4.5
q-4 -5 -5 -12t-1 -27h-132z" />
    <glyph glyph-name="uni00B3" unicode="&#xb3;" horiz-adv-x="585" 
d="M34 525q-1 7 -1 14.5v9.5q0 40 9.5 64t38.5 37t82.5 17.5t142.5 4.5q45 0 77 -1t53.5 -3.5t35.5 -7t25 -11.5q20 -13 29 -34.5t9 -57.5q0 -39 -11.5 -57t-42.5 -28q18 -5 30 -11.5t19 -17.5t10 -27t3 -39q0 -44 -15 -66.5t-50 -33.5q-13 -4 -32.5 -7t-48 -4.5t-66.5 -2.5
t-89 -1q-67 0 -108 5t-63.5 19.5t-30.5 40.5t-8 69v16h130v-10q0 -17 2 -23.5t7 -9.5q6 -4 32 -5.5t83 -1.5q50 0 79.5 2t35.5 7q10 7 10 24q0 12 -1.5 18t-11.5 9t-31.5 3.5t-60.5 0.5h-78v86h101q46 0 60 6.5t14 26.5q0 10 -3 15.5t-14 8.5t-33.5 3.5t-61.5 0.5
q-34 0 -55.5 -0.5t-34.5 -1t-19.5 -2.5t-9.5 -5q-5 -4 -7 -11.5t-2 -27.5h-129z" />
    <glyph glyph-name="acute" unicode="&#xb4;" horiz-adv-x="500" 
d="M351 779l90 -121l-250 -144l-46 60z" />
    <glyph glyph-name="mu" unicode="&#xb5;" horiz-adv-x="717" 
d="M214 473v-217q0 -26 1 -43.5t4 -29.5t7.5 -20.5t11.5 -15.5q15 -15 40 -20.5t75 -5.5q47 0 73.5 6t43.5 21q9 8 15 17.5t9.5 24.5t5 37.5t1.5 55.5v190h177v-473h-167v71h-9q-20 -44 -65 -63.5t-124 -19.5q-35 0 -57.5 5t-41.5 16v-206h-177v670h177z" />
    <glyph glyph-name="paragraph" unicode="&#xb6;" 
d="M768 -90h-120v763h-46v-763h-120v444h-33q-56 0 -87 0.5t-49 1t-28 1.5t-25 3q-37 5 -67 25.5t-44 49.5q-11 23 -15.5 53.5t-4.5 75.5q0 68 13 108t42 62q15 12 28.5 18.5t39 10t71.5 5t126 2.5h319v-860z" />
    <glyph glyph-name="periodcentered" unicode="&#xb7;" horiz-adv-x="327" 
d="M270 328v-177h-213v177h213z" />
    <glyph glyph-name="cedilla" unicode="&#xb8;" horiz-adv-x="500" 
d="M257 0v-53h73q34 0 44.5 -11.5t10.5 -46.5v-97q0 -20 -2 -31.5t-9 -17.5t-20 -7.5t-35 -1.5h-137v72h84q21 0 26 5t5 25v14q0 20 -4.5 24t-26.5 4h-81v122h72z" />
    <glyph glyph-name="uni00B9" unicode="&#xb9;" horiz-adv-x="585" 
d="M432 667v-400h-136v290h-28l-126 -99l-76 83l158 126h208z" />
    <glyph glyph-name="ordmasculine" unicode="&#xba;" horiz-adv-x="502" 
d="M251 561q76 0 114.5 -6t60.5 -20q12 -8 20 -17.5t12.5 -23.5t6.5 -33t2 -45q0 -29 -1.5 -49.5t-6 -35t-11.5 -24.5t-17 -18q-11 -9 -25 -14.5t-34.5 -8.5t-49.5 -4.5t-71 -1.5t-71 1.5t-49.5 4.5t-34.5 8.5t-25 14.5q-11 8 -18 18t-11 24.5t-5.5 36t-1.5 52.5
q0 45 8 72.5t31.5 42.5t66 20.5t110.5 5.5zM252 473q-31 0 -49.5 -2.5t-29 -9t-14 -19t-3.5 -33.5q0 -20 3.5 -32t13.5 -18.5t28.5 -8.5t49.5 -2t50 2t29 9t13 19t3 33q0 20 -3.5 32t-13.5 19t-28.5 9t-48.5 2z" />
    <glyph glyph-name="guillemotright" unicode="&#xbb;" horiz-adv-x="646" 
d="M480 451l132 -169l-156 -282l-145 79l118 208l-61 79zM201 436l129 -158l-155 -278l-142 81l111 202l-53 67z" />
    <glyph glyph-name="onequarter" unicode="&#xbc;" horiz-adv-x="1402" 
d="M392 667v-400h-136v290h-28l-126 -99l-76 83l158 126h208zM932 613l-504 -622l-78 63l503 622zM1336 73h-82v-73h-129v73h-336v156l253 171h212v-231h82v-96zM1125 301h-21l-192 -123v-9h213v132z" />
    <glyph glyph-name="onehalf" unicode="&#xbd;" horiz-adv-x="1402" 
d="M842 263q-1 5 -1 8.5v4.5q0 53 14.5 79t50.5 37q12 4 28.5 6.5t40.5 4t57 2t78 0.5q55 0 89.5 -0.5t56 -3t33.5 -6t22 -9.5q21 -14 30 -37t9 -67q0 -45 -10 -70t-33 -39q-11 -6 -21 -10t-30 -7t-54 -5.5t-92 -5.5q-40 -3 -63.5 -4.5t-36.5 -3t-18 -3t-8 -3.5
q-7 -5 -8.5 -12t-1.5 -28h379v-91h-505q-2 17 -2 25.5v23.5q0 51 2.5 77.5t7.5 40.5q11 29 34.5 42.5t74.5 19.5q5 1 49.5 4t130.5 10q27 2 42 3.5t23 5t10 9.5t2 17q0 12 -2 18.5t-13 10t-34 4t-64 0.5q-37 0 -61 -0.5t-38.5 -1.5t-21 -2.5t-8.5 -4.5q-4 -5 -5 -12t-1 -27
h-132zM952 613l-503 -622l-78 63l503 622zM426 667v-400h-136v290h-28l-126 -99l-76 83l158 126h208z" />
    <glyph glyph-name="threequarters" unicode="&#xbe;" horiz-adv-x="1403" 
d="M34 525q-1 7 -1 14.5v9.5q0 40 9.5 64t38.5 37t82.5 17.5t142.5 4.5q45 0 77 -1t53.5 -3.5t35.5 -7t25 -11.5q20 -13 29 -34.5t9 -57.5q0 -39 -11.5 -57t-42.5 -28q18 -5 30 -11.5t19 -17.5t10 -27t3 -39q0 -44 -15 -66.5t-50 -33.5q-13 -4 -32.5 -7t-48 -4.5t-66.5 -2.5
t-89 -1q-67 0 -108 5t-63.5 19.5t-30.5 40.5t-8 69v16h130v-10q0 -17 2 -23.5t7 -9.5q6 -4 32 -5.5t83 -1.5q50 0 79.5 2t35.5 7q10 7 10 24q0 12 -1.5 18t-11.5 9t-31.5 3.5t-60.5 0.5h-78v86h101q46 0 60 6.5t14 26.5q0 10 -3 15.5t-14 8.5t-33.5 3.5t-61.5 0.5
q-34 0 -55.5 -0.5t-34.5 -1t-19.5 -2.5t-9.5 -5q-5 -4 -7 -11.5t-2 -27.5h-129zM1018 613l-503 -622l-78 63l503 622zM1396 73h-82v-73h-129v73h-336v156l253 171h212v-231h82v-96zM1185 301h-21l-192 -123v-9h213v132z" />
    <glyph glyph-name="questiondown" unicode="&#xbf;" horiz-adv-x="706" 
d="M283 489v178h216v-178h-216zM693 238l-1 -34q1 -60 -5 -91t-23 -52q-15 -20 -39.5 -33.5t-63.5 -22t-94.5 -12t-133.5 -3.5q-99 0 -161 8t-96.5 30t-46.5 61.5t-12 102.5q0 40 4.5 69.5t15 50t27.5 33t42 20.5q11 4 22.5 7t27 6t37.5 7t54 10q20 4 32 7t18 7.5t7.5 12
t1.5 19.5h174q1 -8 1 -16v-10q0 -41 -6 -67.5t-21.5 -43.5t-42.5 -26.5t-70 -16.5q-29 -5 -48.5 -8.5t-32.5 -6t-21.5 -5t-17.5 -5.5q-31 -12 -31 -50q0 -42 38 -51q16 -4 42.5 -5.5t79.5 -1.5q39 0 63 0.5t39 1.5t23.5 3.5t16.5 6.5q7 4 12 9t7.5 14t4 23t1.5 37v15h176z
" />
    <glyph glyph-name="Agrave" unicode="&#xc0;" horiz-adv-x="984" 
d="M340 967l247 -178l-40 -76l-286 98zM513 512h-40l-129 -253h298zM713 113h-441l-57 -113h-232l353 667h316l349 -667h-231z" />
    <glyph glyph-name="Aacute" unicode="&#xc1;" horiz-adv-x="984" 
d="M722 812l-284 -100l-42 79l249 177zM513 512h-40l-129 -253h298zM713 113h-441l-57 -113h-232l353 667h316l349 -667h-231z" />
    <glyph glyph-name="Acircumflex" unicode="&#xc2;" horiz-adv-x="984" 
d="M492 947l248 -135l-27 -65l-221 57l-221 -57l-28 65zM513 512h-40l-129 -253h298zM713 113h-441l-57 -113h-232l353 667h316l349 -667h-231z" />
    <glyph glyph-name="Atilde" unicode="&#xc3;" horiz-adv-x="984" 
d="M732 904q-1 -23 -2 -39t-3.5 -27.5t-6.5 -20t-10 -17.5q-27 -39 -74 -39q-23 0 -55.5 6.5t-84.5 21.5q-27 8 -46 13t-32.5 8t-23 4.5t-16.5 1.5q-34 0 -34 -40h-92q1 41 6.5 63.5t18.5 39.5q31 40 86 40q12 0 22.5 -1t25.5 -4.5t38 -10t60 -16.5q43 -12 67.5 -17.5
t36.5 -5.5q15 0 20.5 8t6.5 32h92zM513 512h-40l-129 -253h298zM713 113h-441l-57 -113h-232l353 667h316l349 -667h-231z" />
    <glyph glyph-name="Adieresis" unicode="&#xc4;" horiz-adv-x="984" 
d="M738 912v-144h-193v144h193zM438 912v-144h-193v144h193zM513 512h-40l-129 -253h298zM713 113h-441l-57 -113h-232l353 667h316l349 -667h-231z" />
    <glyph glyph-name="Aring" unicode="&#xc5;" horiz-adv-x="984" 
d="M713 113h-441l-57 -113h-232l353 667h316l349 -667h-231zM513 512h-40l-129 -253h298zM507 1012q56 0 88.5 -5.5t50.5 -16.5q10 -7 16 -16t10 -24t5.5 -37.5t1.5 -55.5q0 -34 -2 -56.5t-6.5 -37.5t-13.5 -24t-22 -15q-19 -9 -56.5 -13t-101.5 -4q-55 0 -85.5 4t-47.5 15
q-12 7 -19.5 16t-12 24.5t-6 39.5t-1.5 60q0 34 2.5 56.5t8.5 37.5t16 23.5t25 14.5q37 14 150 14zM486 928q-23 0 -38 -3t-23.5 -10.5t-12 -20.5t-3.5 -33q0 -24 2.5 -37.5t10.5 -21t24.5 -9.5t43.5 -2q28 0 44.5 2t25.5 9.5t11.5 21t2.5 36.5q0 22 -3 35.5t-12.5 20.5
t-27 9.5t-45.5 2.5z" />
    <glyph glyph-name="AE" unicode="&#xc6;" horiz-adv-x="1387" 
d="M1370 667v-157h-522v-97h490v-147h-490v-106h520v-160h-718v114h-353l-76 -119h-241l452 672h938zM391 263h259v245h-101z" />
    <glyph glyph-name="Ccedilla" unicode="&#xc7;" horiz-adv-x="909" 
d="M468 -54h75q35 0 46 -11.5t11 -48.5v-110q0 -20 -2 -32t-9 -18t-20.5 -8t-36.5 -2h-141v85h83q22 0 27 4t5 20v21q0 16 -4.5 19.5t-27.5 3.5h-80v122q-42 1 -65.5 1.5t-36.5 0.5t-20 0.5t-16 1.5q-47 3 -81.5 10.5t-58.5 19.5t-40 30t-25 43q-5 13 -8.5 31t-5.5 44.5
t-3 64.5t-1 91q0 55 1 94.5t3 67.5t6 46.5t9 32.5q13 34 37.5 55t74.5 32.5t132.5 15.5t213.5 4q66 0 112.5 -1.5t79.5 -5t55 -9.5t39 -15q21 -11 36 -26t24 -37t13 -52t4 -70v-12.5t-1 -20.5h-203q-1 29 -3 40.5t-9 19.5q-10 12 -57 17t-148 5q-47 0 -79 -1t-53 -3
t-33 -6.5t-19 -10.5q-18 -14 -25 -49t-7 -110q0 -64 4 -99.5t24.5 -52t64.5 -19.5t124 -3q55 0 93.5 0.5t63.5 3.5t39 9t20.5 17.5t8 28.5t2.5 42h203q2 -28 2 -41v-22q0 -41 -5.5 -70.5t-17.5 -51t-31.5 -36t-47.5 -23.5q-20 -6 -41.5 -10.5t-49 -7t-63.5 -4t-85 -1.5h-76
v-44z" />
    <glyph glyph-name="Egrave" unicode="&#xc8;" horiz-adv-x="806" 
d="M282 967l247 -178l-40 -76l-286 98zM785 667v-157h-538v-97h511v-147h-511v-106h542v-160h-742v667h738z" />
    <glyph glyph-name="Eacute" unicode="&#xc9;" horiz-adv-x="806" 
d="M633 812l-284 -100l-41 79l248 177zM785 667v-157h-538v-97h511v-147h-511v-106h542v-160h-742v667h738z" />
    <glyph glyph-name="Ecircumflex" unicode="&#xca;" horiz-adv-x="806" 
d="M423 947l249 -135l-28 -65l-221 57l-221 -57l-27 65zM785 667v-157h-538v-97h511v-147h-511v-106h542v-160h-742v667h738z" />
    <glyph glyph-name="Edieresis" unicode="&#xcb;" horiz-adv-x="806" 
d="M663 912v-144h-193v144h193zM363 912v-144h-193v144h193zM785 667v-157h-538v-97h511v-147h-511v-106h542v-160h-742v667h738z" />
    <glyph glyph-name="Igrave" unicode="&#xcc;" horiz-adv-x="307" 
d="M30 978l207 -210l-51 -66l-257 141zM260 667v-667h-213v667h213z" />
    <glyph glyph-name="Iacute" unicode="&#xcd;" horiz-adv-x="307" 
d="M381 844l-254 -143l-53 68l207 211zM260 667v-667h-213v667h213z" />
    <glyph glyph-name="Icircumflex" unicode="&#xce;" horiz-adv-x="307" 
d="M5 749l-34 63l182 135l182 -135l-34 -63l-148 55zM259 667v-667h-213v667h213z" />
    <glyph glyph-name="Idieresis" unicode="&#xcf;" horiz-adv-x="307" 
d="M360 912v-144h-180v144h180zM127 912v-144h-180v144h180zM260 667v-667h-213v667h213z" />
    <glyph glyph-name="Eth" unicode="&#xd0;" horiz-adv-x="970" 
d="M538 667q64 0 102.5 -0.5t64 -1.5t43.5 -4t40 -7q100 -20 130 -113q6 -18 9.5 -36t5.5 -40.5t3 -52t1 -69.5q0 -65 -3 -112t-10.5 -80t-20 -55.5t-31.5 -39.5t-42 -28t-60 -17t-92.5 -8.5t-139.5 -2.5h-481v275h-62v126h62v266h481zM539 170q69 0 109 4t59.5 20t24.5 48
t5 88q0 31 -1.5 54t-4.5 40t-8.5 28.5t-12.5 19.5q-8 9 -18.5 14.5t-29 8.5t-48.5 4t-76 1h-281v-99h295v-126h-295v-105h282z" />
    <glyph glyph-name="Ntilde" unicode="&#xd1;" horiz-adv-x="1021" 
d="M751 904q-1 -23 -2 -39t-3.5 -27.5t-6.5 -20t-10 -17.5q-27 -39 -74 -39q-23 0 -55.5 6.5t-84.5 21.5q-27 8 -46 13t-32.5 8t-23 4.5t-16.5 1.5q-34 0 -34 -40h-92q1 41 6.5 63.5t18.5 39.5q31 40 86 40q12 0 22.5 -1t25.5 -4.5t38 -10t60 -16.5q43 -12 67.5 -17.5
t36.5 -5.5q15 0 20.5 8t6.5 32h92zM403 667l349 -497h21l-5 497h207v-667h-353l-351 498h-22l5 -498h-207v667h356z" />
    <glyph glyph-name="Ograve" unicode="&#xd2;" horiz-adv-x="982" 
d="M346 967l247 -178l-40 -76l-286 98zM491 504q-75 0 -118.5 -1t-68 -5.5t-35 -12.5t-17.5 -23q-9 -17 -12.5 -49.5t-3.5 -96.5q0 -31 1.5 -52.5t4.5 -36t9 -24t15 -16.5q10 -8 23.5 -12.5t38 -7t64 -3.5t101.5 -1q60 0 99 1t63 3.5t37.5 7t23.5 12.5q17 13 23.5 40.5
t6.5 87.5q0 36 -1 62.5t-4 45t-7.5 31t-11.5 20.5q-9 10 -20 16t-35 9t-65.5 4t-110.5 1zM491 677q104 0 171 -2t110 -7t67.5 -14t43.5 -23q19 -15 32 -36.5t20.5 -55.5t10.5 -83.5t3 -121.5t-3 -122t-10.5 -84t-20.5 -55.5t-32 -36.5q-19 -14 -44 -23t-67.5 -14t-109 -7
t-169.5 -2q-104 0 -171.5 2t-110.5 7t-68 14t-44 23q-19 15 -32 36.5t-20.5 56t-10.5 85.5t-3 124q0 69 3.5 118t11 83t20 55.5t31.5 36.5q19 14 43.5 23t67.5 14t110 7t171 2z" />
    <glyph glyph-name="Oacute" unicode="&#xd3;" horiz-adv-x="982" 
d="M721 812l-284 -100l-42 79l249 177zM491 504q-75 0 -118.5 -1t-68 -5.5t-35 -12.5t-17.5 -23q-9 -17 -12.5 -49.5t-3.5 -96.5q0 -31 1.5 -52.5t4.5 -36t9 -24t15 -16.5q10 -8 23.5 -12.5t38 -7t64 -3.5t101.5 -1q60 0 99 1t63 3.5t37.5 7t23.5 12.5q17 13 23.5 40.5
t6.5 87.5q0 36 -1 62.5t-4 45t-7.5 31t-11.5 20.5q-9 10 -20 16t-35 9t-65.5 4t-110.5 1zM491 677q104 0 171 -2t110 -7t67.5 -14t43.5 -23q19 -15 32 -36.5t20.5 -55.5t10.5 -83.5t3 -121.5t-3 -122t-10.5 -84t-20.5 -55.5t-32 -36.5q-19 -14 -44 -23t-67.5 -14t-109 -7
t-169.5 -2q-104 0 -171.5 2t-110.5 7t-68 14t-44 23q-19 15 -32 36.5t-20.5 56t-10.5 85.5t-3 124q0 69 3.5 118t11 83t20 55.5t31.5 36.5q19 14 43.5 23t67.5 14t110 7t171 2z" />
    <glyph glyph-name="Ocircumflex" unicode="&#xd4;" horiz-adv-x="982" 
d="M491 947l249 -135l-28 -65l-221 57l-221 -57l-28 65zM491 504q-75 0 -118.5 -1t-68 -5.5t-35 -12.5t-17.5 -23q-9 -17 -12.5 -49.5t-3.5 -96.5q0 -31 1.5 -52.5t4.5 -36t9 -24t15 -16.5q10 -8 23.5 -12.5t38 -7t64 -3.5t101.5 -1q60 0 99 1t63 3.5t37.5 7t23.5 12.5
q17 13 23.5 40.5t6.5 87.5q0 36 -1 62.5t-4 45t-7.5 31t-11.5 20.5q-9 10 -20 16t-35 9t-65.5 4t-110.5 1zM491 677q104 0 171 -2t110 -7t67.5 -14t43.5 -23q19 -15 32 -36.5t20.5 -55.5t10.5 -83.5t3 -121.5t-3 -122t-10.5 -84t-20.5 -55.5t-32 -36.5q-19 -14 -44 -23
t-67.5 -14t-109 -7t-169.5 -2q-104 0 -171.5 2t-110.5 7t-68 14t-44 23q-19 15 -32 36.5t-20.5 56t-10.5 85.5t-3 124q0 69 3.5 118t11 83t20 55.5t31.5 36.5q19 14 43.5 23t67.5 14t110 7t171 2z" />
    <glyph glyph-name="Otilde" unicode="&#xd5;" horiz-adv-x="982" 
d="M731 904q-1 -23 -2 -39t-3.5 -27.5t-6.5 -20t-10 -17.5q-27 -39 -74 -39q-23 0 -55.5 6.5t-84.5 21.5q-27 8 -46 13t-32.5 8t-22.5 4.5t-17 1.5q-33 0 -34 -40h-92q2 41 7 63.5t18 39.5q31 40 86 40q12 0 22.5 -1t25.5 -4.5t38 -10t60 -16.5q43 -12 67.5 -17.5t36.5 -5.5
q16 0 21 8t6 32h92zM491 504q-75 0 -118.5 -1t-68 -5.5t-35 -12.5t-17.5 -23q-9 -17 -12.5 -49.5t-3.5 -96.5q0 -31 1.5 -52.5t4.5 -36t9 -24t15 -16.5q10 -8 23.5 -12.5t38 -7t64 -3.5t101.5 -1q60 0 99 1t63 3.5t37.5 7t23.5 12.5q17 13 23.5 40.5t6.5 87.5q0 36 -1 62.5
t-4 45t-7.5 31t-11.5 20.5q-9 10 -20 16t-35 9t-65.5 4t-110.5 1zM491 677q104 0 171 -2t110 -7t67.5 -14t43.5 -23q19 -15 32 -36.5t20.5 -55.5t10.5 -83.5t3 -121.5t-3 -122t-10.5 -84t-20.5 -55.5t-32 -36.5q-19 -14 -44 -23t-67.5 -14t-109 -7t-169.5 -2
q-104 0 -171.5 2t-110.5 7t-68 14t-44 23q-19 15 -32 36.5t-20.5 56t-10.5 85.5t-3 124q0 69 3.5 118t11 83t20 55.5t31.5 36.5q19 14 43.5 23t67.5 14t110 7t171 2z" />
    <glyph glyph-name="Odieresis" unicode="&#xd6;" horiz-adv-x="982" 
d="M738 912v-144h-193v144h193zM437 912v-144h-193v144h193zM491 504q-75 0 -118.5 -1t-68 -5.5t-35 -12.5t-17.5 -23q-9 -17 -12.5 -49.5t-3.5 -96.5q0 -31 1.5 -52.5t4.5 -36t9 -24t15 -16.5q10 -8 23.5 -12.5t38 -7t64 -3.5t101.5 -1q60 0 99 1t63 3.5t37.5 7t23.5 12.5
q17 13 23.5 40.5t6.5 87.5q0 36 -1 62.5t-4 45t-7.5 31t-11.5 20.5q-9 10 -20 16t-35 9t-65.5 4t-110.5 1zM491 677q104 0 171 -2t110 -7t67.5 -14t43.5 -23q19 -15 32 -36.5t20.5 -55.5t10.5 -83.5t3 -121.5t-3 -122t-10.5 -84t-20.5 -55.5t-32 -36.5q-19 -14 -44 -23
t-67.5 -14t-109 -7t-169.5 -2q-104 0 -171.5 2t-110.5 7t-68 14t-44 23q-19 15 -32 36.5t-20.5 56t-10.5 85.5t-3 124q0 69 3.5 118t11 83t20 55.5t31.5 36.5q19 14 43.5 23t67.5 14t110 7t171 2z" />
    <glyph glyph-name="multiply" unicode="&#xd7;" 
d="M253 55l-85 85l200 200l-200 200l85 85l200 -200l200 200l85 -85l-200 -200l200 -200l-85 -85l-200 200z" />
    <glyph glyph-name="Oslash" unicode="&#xd8;" horiz-adv-x="1008" 
d="M-18 101l75 43q-6 34 -8.5 75.5t-2.5 106.5q0 75 3 126t10.5 86t20 56.5t32.5 36.5q19 14 44 23t67.5 14t109 7t168.5 2q107 0 175.5 -2t111.5 -7.5t68 -15t45 -25.5l122 70v-122l-73 -42q7 -35 10 -78.5t3 -111.5q0 -75 -3 -127t-10.5 -87t-20.5 -56.5t-32 -36.5
q-19 -14 -44 -23t-67.5 -14t-110 -7t-170.5 -2q-110 0 -179.5 2t-113 8t-68 17.5t-44.5 29.5l-118 -68v122zM677 499q-14 1 -26.5 2t-27.5 2t-33 1h-42q-80 0 -128 -0.5t-75 -2.5t-39 -6t-22 -11t-17 -18.5t-11 -31t-5.5 -48.5t-1.5 -71q0 -23 0.5 -35.5t2.5 -23.5zM317 171
q14 -3 29 -4.5t35.5 -2t49.5 -1t73 -0.5q62 0 101 1t63.5 3.5t38 7t23.5 12.5q9 7 14.5 16.5t9 24t5 36t1.5 52.5q0 38 -1.5 62.5t-4.5 42.5z" />
    <glyph glyph-name="Ugrave" unicode="&#xd9;" horiz-adv-x="953" 
d="M344 967l248 -178l-40 -76l-286 98zM246 667v-307q1 -39 1.5 -61t1 -34.5t1.5 -20t3 -17.5q4 -20 15 -32.5t35.5 -19.5t66 -9.5t106.5 -2.5q52 0 87.5 1.5t58.5 4.5t36.5 9t21.5 15q6 6 10 13.5t7 18.5t4.5 26.5t2.5 39.5q1 17 1.5 37.5t0.5 31.5v307h203v-307
q-1 -57 -2 -90t-2 -53.5t-2.5 -34l-3.5 -31.5q-8 -57 -44.5 -95t-93.5 -50q-23 -5 -48.5 -8t-58.5 -4.5t-75.5 -2.5t-99.5 -1q-95 0 -160 3t-108.5 10.5t-70.5 20.5t-46 33q-12 13 -20.5 27.5t-14.5 35t-9 47t-5 63.5q0 8 -0.5 14.5t-0.5 18.5t-0.5 34t-0.5 63v307h203z" />
    <glyph glyph-name="Uacute" unicode="&#xda;" horiz-adv-x="953" 
d="M693 812l-284 -100l-42 79l249 177zM246 667v-307q1 -39 1.5 -61t1 -34.5t1.5 -20t3 -17.5q4 -20 15 -32.5t35.5 -19.5t66 -9.5t106.5 -2.5q52 0 87.5 1.5t58.5 4.5t36.5 9t21.5 15q6 6 10 13.5t7 18.5t4.5 26.5t2.5 39.5q1 17 1.5 37.5t0.5 31.5v307h203v-307
q-1 -57 -2 -90t-2 -53.5t-2.5 -34l-3.5 -31.5q-8 -57 -44.5 -95t-93.5 -50q-23 -5 -48.5 -8t-58.5 -4.5t-75.5 -2.5t-99.5 -1q-95 0 -160 3t-108.5 10.5t-70.5 20.5t-46 33q-12 13 -20.5 27.5t-14.5 35t-9 47t-5 63.5q0 8 -0.5 14.5t-0.5 18.5t-0.5 34t-0.5 63v307h203z" />
    <glyph glyph-name="Ucircumflex" unicode="&#xdb;" horiz-adv-x="953" 
d="M476 947l249 -135l-28 -65l-221 57l-221 -57l-28 65zM246 667v-307q1 -39 1.5 -61t1 -34.5t1.5 -20t3 -17.5q4 -20 15 -32.5t35.5 -19.5t66 -9.5t106.5 -2.5q52 0 87.5 1.5t58.5 4.5t36.5 9t21.5 15q6 6 10 13.5t7 18.5t4.5 26.5t2.5 39.5q1 17 1.5 37.5t0.5 31.5v307
h203v-307q-1 -57 -2 -90t-2 -53.5t-2.5 -34l-3.5 -31.5q-8 -57 -44.5 -95t-93.5 -50q-23 -5 -48.5 -8t-58.5 -4.5t-75.5 -2.5t-99.5 -1q-95 0 -160 3t-108.5 10.5t-70.5 20.5t-46 33q-12 13 -20.5 27.5t-14.5 35t-9 47t-5 63.5q0 8 -0.5 14.5t-0.5 18.5t-0.5 34t-0.5 63v307
h203z" />
    <glyph glyph-name="Udieresis" unicode="&#xdc;" horiz-adv-x="953" 
d="M723 912v-144h-193v144h193zM422 912v-144h-193v144h193zM246 667v-307q1 -39 1.5 -61t1 -34.5t1.5 -20t3 -17.5q4 -20 15 -32.5t35.5 -19.5t66 -9.5t106.5 -2.5q52 0 87.5 1.5t58.5 4.5t36.5 9t21.5 15q6 6 10 13.5t7 18.5t4.5 26.5t2.5 39.5q1 17 1.5 37.5t0.5 31.5
v307h203v-307q-1 -57 -2 -90t-2 -53.5t-2.5 -34l-3.5 -31.5q-8 -57 -44.5 -95t-93.5 -50q-23 -5 -48.5 -8t-58.5 -4.5t-75.5 -2.5t-99.5 -1q-95 0 -160 3t-108.5 10.5t-70.5 20.5t-46 33q-12 13 -20.5 27.5t-14.5 35t-9 47t-5 63.5q0 8 -0.5 14.5t-0.5 18.5t-0.5 34t-0.5 63
v307h203z" />
    <glyph glyph-name="Yacute" unicode="&#xdd;" horiz-adv-x="917" 
d="M689 812l-284 -100l-42 79l248 177zM247 667l217 -267l208 267h265l-365 -431v-236h-210v236l-382 431h267z" />
    <glyph glyph-name="Thorn" unicode="&#xde;" horiz-adv-x="867" 
d="M47 667h203v-67h253h77t47.5 -1t31 -2t26.5 -3q47 -7 78.5 -22t50 -43t26 -71.5t7.5 -107.5q0 -55 -5.5 -94.5t-18 -67t-33 -44.5t-50.5 -28q-17 -6 -35.5 -9.5t-45 -5.5t-63.5 -3t-91 -1h-255v-97h-203v667zM503 264q36 0 56 0.5t31 1.5t17 3t12 6q14 8 19.5 24.5
t5.5 51.5t-7.5 52t-27.5 24q-5 2 -9.5 3t-15 1.5t-29 1t-52.5 0.5h-253v-169h253z" />
    <glyph glyph-name="germandbls" unicode="&#xdf;" horiz-adv-x="755" 
d="M40 441q0 39 2.5 66.5t9 48t17 36t26.5 29.5q20 18 42.5 29t55 17.5t80 9t116.5 2.5q48 0 82.5 -1.5t60 -5.5t43.5 -10.5t33 -16.5q31 -20 45.5 -49.5t14.5 -73.5q0 -56 -23.5 -84t-80.5 -41q22 -2 39 -5t30 -7t23 -9.5t20 -12.5q27 -21 39.5 -57t12.5 -91
q0 -117 -59 -170.5t-188 -53.5q-155 0 -199 74q-12 20 -16.5 46t-5.5 74h147q1 -19 4 -31t10.5 -19t20 -9.5t33.5 -2.5q44 0 60 22.5t16 83.5q0 48 -9.5 71t-32.5 33q-7 3 -14.5 5t-19 3t-28 1.5t-40.5 0.5h-106v117h82q28 0 44 0.5t25 1t13.5 2t9.5 3.5q20 8 20 40
q0 15 -5.5 24t-19.5 14.5t-39.5 7.5t-64.5 2q-46 0 -75 -4.5t-45.5 -16.5t-22.5 -33t-6 -55v-446h-177v441z" />
    <glyph glyph-name="agrave" unicode="&#xe0;" horiz-adv-x="700" 
d="M458 573l-45 -58l-251 142l91 121zM339 201q-40 0 -66.5 -2.5t-42 -8t-22 -15t-6.5 -24.5t6 -24.5t20 -15t37.5 -8t58.5 -2.5q46 0 76.5 2.5t49 8.5t26 16.5t7.5 26.5q0 30 -31 41q-8 3 -33.5 4t-79.5 1zM44 325q4 52 22.5 82.5t60.5 50.5q30 14 93.5 21t170.5 7
q58 0 96 -1.5t63.5 -7t41.5 -14.5t31 -24q11 -12 19 -25.5t12.5 -31.5t6.5 -41.5t2 -55.5v-285h-170v65h-8q-11 -23 -26 -37t-39 -24q-11 -5 -26 -8t-37 -4.5t-52.5 -2.5t-73.5 -1q-59 0 -98.5 7t-63.5 24.5t-34 46t-10 70.5q0 64 24.5 100.5t76.5 50.5q15 4 33.5 7t44 4.5
t59.5 2t82 0.5q30 0 51 -1.5t36 -5.5t25.5 -11.5t20.5 -18.5h8v25q0 27 -4 43.5t-16.5 25.5t-36.5 11.5t-64 2.5q-48 0 -75.5 -1.5t-42.5 -6t-20 -14t-7 -25.5h-176z" />
    <glyph glyph-name="aacute" unicode="&#xe1;" horiz-adv-x="700" 
d="M464 779l90 -121l-250 -144l-46 60zM339 201q-40 0 -66.5 -2.5t-42 -8t-22 -15t-6.5 -24.5t6 -24.5t20 -15t37.5 -8t58.5 -2.5q46 0 76.5 2.5t49 8.5t26 16.5t7.5 26.5q0 30 -31 41q-8 3 -33.5 4t-79.5 1zM44 325q4 52 22.5 82.5t60.5 50.5q30 14 93.5 21t170.5 7
q58 0 96 -1.5t63.5 -7t41.5 -14.5t31 -24q11 -12 19 -25.5t12.5 -31.5t6.5 -41.5t2 -55.5v-285h-170v65h-8q-11 -23 -26 -37t-39 -24q-11 -5 -26 -8t-37 -4.5t-52.5 -2.5t-73.5 -1q-59 0 -98.5 7t-63.5 24.5t-34 46t-10 70.5q0 64 24.5 100.5t76.5 50.5q15 4 33.5 7t44 4.5
t59.5 2t82 0.5q30 0 51 -1.5t36 -5.5t25.5 -11.5t20.5 -18.5h8v25q0 27 -4 43.5t-16.5 25.5t-36.5 11.5t-64 2.5q-48 0 -75.5 -1.5t-42.5 -6t-20 -14t-7 -25.5h-176z" />
    <glyph glyph-name="acircumflex" unicode="&#xe2;" horiz-adv-x="700" 
d="M357 740l235 -144l-28 -59l-207 74l-208 -74l-28 59zM339 201q-40 0 -66.5 -2.5t-42 -8t-22 -15t-6.5 -24.5t6 -24.5t20 -15t37.5 -8t58.5 -2.5q46 0 76.5 2.5t49 8.5t26 16.5t7.5 26.5q0 30 -31 41q-8 3 -33.5 4t-79.5 1zM44 325q4 52 22.5 82.5t60.5 50.5
q30 14 93.5 21t170.5 7q58 0 96 -1.5t63.5 -7t41.5 -14.5t31 -24q11 -12 19 -25.5t12.5 -31.5t6.5 -41.5t2 -55.5v-285h-170v65h-8q-11 -23 -26 -37t-39 -24q-11 -5 -26 -8t-37 -4.5t-52.5 -2.5t-73.5 -1q-59 0 -98.5 7t-63.5 24.5t-34 46t-10 70.5q0 64 24.5 100.5
t76.5 50.5q15 4 33.5 7t44 4.5t59.5 2t82 0.5q30 0 51 -1.5t36 -5.5t25.5 -11.5t20.5 -18.5h8v25q0 27 -4 43.5t-16.5 25.5t-36.5 11.5t-64 2.5q-48 0 -75.5 -1.5t-42.5 -6t-20 -14t-7 -25.5h-176z" />
    <glyph glyph-name="atilde" unicode="&#xe3;" horiz-adv-x="700" 
d="M587 704q0 -46 -4 -69.5t-15 -42.5q-26 -42 -70 -42q-23 0 -54 7.5t-81 26.5t-74 26t-38 7q-19 0 -27 -12.5t-9 -41.5h-89q1 42 6 66.5t17 43.5q29 44 81 44q12 0 21.5 -1t23.5 -5t36 -12t59 -21q42 -15 65 -21.5t35 -6.5q21 0 26 20q2 5 2 11t1 23h88zM339 201
q-40 0 -66.5 -2.5t-42 -8t-22 -15t-6.5 -24.5t6 -24.5t20 -15t37.5 -8t58.5 -2.5q46 0 76.5 2.5t49 8.5t26 16.5t7.5 26.5q0 30 -31 41q-8 3 -33.5 4t-79.5 1zM44 325q4 52 22.5 82.5t60.5 50.5q30 14 93.5 21t170.5 7q58 0 96 -1.5t63.5 -7t41.5 -14.5t31 -24
q11 -12 19 -25.5t12.5 -31.5t6.5 -41.5t2 -55.5v-285h-170v65h-8q-11 -23 -26 -37t-39 -24q-11 -5 -26 -8t-37 -4.5t-52.5 -2.5t-73.5 -1q-59 0 -98.5 7t-63.5 24.5t-34 46t-10 70.5q0 64 24.5 100.5t76.5 50.5q15 4 33.5 7t44 4.5t59.5 2t82 0.5q30 0 51 -1.5t36 -5.5
t25.5 -11.5t20.5 -18.5h8v25q0 27 -4 43.5t-16.5 25.5t-36.5 11.5t-64 2.5q-48 0 -75.5 -1.5t-42.5 -6t-20 -14t-7 -25.5h-176z" />
    <glyph glyph-name="adieresis" unicode="&#xe4;" horiz-adv-x="700" 
d="M573 697v-127h-187v127h187zM320 697v-127h-187v127h187zM339 201q-40 0 -66.5 -2.5t-42 -8t-22 -15t-6.5 -24.5t6 -24.5t20 -15t37.5 -8t58.5 -2.5q46 0 76.5 2.5t49 8.5t26 16.5t7.5 26.5q0 30 -31 41q-8 3 -33.5 4t-79.5 1zM44 325q4 52 22.5 82.5t60.5 50.5
q30 14 93.5 21t170.5 7q58 0 96 -1.5t63.5 -7t41.5 -14.5t31 -24q11 -12 19 -25.5t12.5 -31.5t6.5 -41.5t2 -55.5v-285h-170v65h-8q-11 -23 -26 -37t-39 -24q-11 -5 -26 -8t-37 -4.5t-52.5 -2.5t-73.5 -1q-59 0 -98.5 7t-63.5 24.5t-34 46t-10 70.5q0 64 24.5 100.5
t76.5 50.5q15 4 33.5 7t44 4.5t59.5 2t82 0.5q30 0 51 -1.5t36 -5.5t25.5 -11.5t20.5 -18.5h8v25q0 27 -4 43.5t-16.5 25.5t-36.5 11.5t-64 2.5q-48 0 -75.5 -1.5t-42.5 -6t-20 -14t-7 -25.5h-176z" />
    <glyph glyph-name="aring" unicode="&#xe5;" horiz-adv-x="700" 
d="M44 325q4 52 22.5 82.5t60.5 50.5q30 14 93.5 21t170.5 7q58 0 96 -1.5t63.5 -7t41.5 -14.5t31 -24q11 -12 19 -25.5t12.5 -31.5t6.5 -41.5t2 -55.5v-285h-170v65h-8q-11 -23 -26 -37t-39 -24q-11 -5 -26 -8t-37 -4.5t-52.5 -2.5t-73.5 -1q-59 0 -98.5 7t-63.5 24.5
t-34 46t-10 70.5q0 64 24.5 100.5t76.5 50.5q15 4 33.5 7t44 4.5t59.5 2t82 0.5q30 0 51 -1.5t36 -5.5t25.5 -11.5t20.5 -18.5h8v25q0 27 -4 43.5t-16.5 25.5t-36.5 11.5t-64 2.5q-48 0 -75.5 -1.5t-42.5 -6t-20 -14t-7 -25.5h-176zM339 201q-40 0 -66.5 -2.5t-42 -8
t-22 -15t-6.5 -24.5t6 -24.5t20 -15t37.5 -8t58.5 -2.5q46 0 76.5 2.5t49 8.5t26 16.5t7.5 26.5q0 30 -31 41q-8 3 -33.5 4t-79.5 1zM408 817q39 0 62.5 -5t36 -20t17 -42t4.5 -72q0 -32 -0.5 -52t-2.5 -32.5t-5 -20.5t-9 -15q-7 -9 -16.5 -14.5t-31 -8.5t-59.5 -4t-101 -1
q-38 0 -57.5 5t-30.5 18q-7 8 -11.5 17.5t-7 23.5t-3.5 35.5t-1 53.5q0 34 2.5 57.5t9 38t18 22t28.5 10.5q15 3 55 4.5t103 1.5zM365 726q-27 0 -43 -1.5t-25 -7t-11.5 -16t-2.5 -28.5t2.5 -28.5t10.5 -16t22.5 -7t39.5 -1.5q26 0 41.5 2t24 7.5t11.5 16t3 27.5
q0 16 -3 26.5t-11 16.5t-22 8t-37 2z" />
    <glyph glyph-name="ae" unicode="&#xe6;" horiz-adv-x="1140" 
d="M1111 151q-6 -50 -22.5 -81.5t-53 -49.5t-97 -25t-153.5 -7q-56 0 -95 3t-65.5 10.5t-43.5 20t-30 31.5h-8q-12 -19 -29.5 -31.5t-45.5 -20t-70 -10.5t-102 -3q-57 0 -94 1t-61.5 4t-40 8.5t-27.5 13.5q-48 32 -48 124q0 66 26.5 102.5t84.5 48.5q16 3 32.5 5.5t39 3.5
t52.5 1.5t72 0.5q35 0 58 -1.5t39.5 -5.5t27.5 -11t22 -19h9v24q0 29 -4 46t-19 25.5t-43 11t-76 2.5q-41 0 -65 -1.5t-36.5 -6t-16.5 -13.5t-5 -24h-177q2 42 14.5 68.5t38.5 45.5q18 13 39.5 21.5t52.5 13.5t74 7t104 2q46 0 78 -3t54.5 -10.5t38.5 -20.5t30 -33h10
q13 21 29.5 34t43.5 20.5t67.5 10t102.5 2.5q45 0 79 -2t59.5 -5.5t44.5 -10t34 -15.5q20 -12 34 -28.5t22.5 -41t12.5 -57.5t4 -78v-50h-459q0 -31 6 -50t22 -29.5t46 -14t78 -3.5q51 0 79 4.5t40 14.5q5 5 7 10.5t5 20.5h174zM335 203q-45 0 -69.5 -2t-35.5 -7
q-28 -11 -28 -43q0 -15 6 -24.5t20.5 -15.5t39.5 -8t64 -2q45 0 75 2.5t47 8.5t24 16t7 26q0 34 -35 45q-8 2 -34.5 3t-80.5 1zM936 295q-1 28 -3 38.5t-9 18.5q-12 13 -40 18.5t-82 5.5q-46 0 -74.5 -3t-44.5 -12t-22 -25t-7 -41h282z" />
    <glyph glyph-name="ccedilla" unicode="&#xe7;" horiz-adv-x="699" 
d="M356 -53h73q34 0 44.5 -11.5t10.5 -46.5v-97q0 -20 -2 -31.5t-9 -17.5t-20 -7.5t-35 -1.5h-137v72h84q21 0 26 5t5 25v14q0 20 -4.5 24t-26.5 4h-81v111q-69 2 -109 9t-69 22q-23 12 -38 28.5t-24 42t-13 61.5t-4 88q0 43 3 74.5t9.5 54.5t17 39.5t26.5 29.5
q17 14 38.5 23t52.5 14.5t73.5 8t102.5 2.5q58 0 101.5 -2.5t75.5 -8.5t54.5 -15.5t39.5 -22.5q14 -11 24 -24.5t16 -31.5t9.5 -42.5t4.5 -57.5h-180q-2 20 -10.5 34t-25.5 22.5t-43.5 12t-65.5 3.5q-80 0 -112 -16q-18 -10 -26 -33.5t-8 -69.5t9.5 -67.5t32.5 -31.5
q16 -7 44 -10.5t63 -3.5q39 0 64.5 3t41.5 11t24 21.5t11 33.5h180q-1 -36 -5.5 -63t-14.5 -47t-25.5 -35t-37.5 -28q-18 -8 -37.5 -13.5t-46 -9t-63 -5t-88.5 -1.5v-41z" />
    <glyph glyph-name="egrave" unicode="&#xe8;" horiz-adv-x="693" 
d="M455 573l-45 -58l-251 142l91 121zM489 295q-1 28 -3.5 38.5t-10.5 18.5q-12 13 -41 18.5t-81 5.5q-45 0 -73.5 -3.5t-45 -12.5t-23 -24.5t-7.5 -40.5h285zM663 151q-5 -49 -21.5 -80.5t-54 -50t-99 -25.5t-156.5 -7q-51 0 -90 2.5t-68 7.5t-50 13.5t-37 20.5
q-17 13 -28.5 29.5t-18.5 40t-10 56t-3 77.5q0 48 3 81.5t10.5 57.5t20 40.5t30.5 29.5q17 12 38 20t51 13t71.5 7t98.5 2q60 0 102 -2t71.5 -7.5t49.5 -14t36 -21.5q31 -26 44.5 -70.5t13.5 -124.5v-19t-1 -29h-462q0 -36 4.5 -51.5t17.5 -25.5q26 -20 120 -20q42 0 68.5 2
t41.5 7.5t21.5 15t9.5 25.5h176z" />
    <glyph glyph-name="eacute" unicode="&#xe9;" horiz-adv-x="693" 
d="M455 779l89 -121l-249 -144l-47 60zM489 295q-1 28 -3.5 38.5t-10.5 18.5q-12 13 -41 18.5t-81 5.5q-45 0 -73.5 -3.5t-45 -12.5t-23 -24.5t-7.5 -40.5h285zM663 151q-5 -49 -21.5 -80.5t-54 -50t-99 -25.5t-156.5 -7q-51 0 -90 2.5t-68 7.5t-50 13.5t-37 20.5
q-17 13 -28.5 29.5t-18.5 40t-10 56t-3 77.5q0 48 3 81.5t10.5 57.5t20 40.5t30.5 29.5q17 12 38 20t51 13t71.5 7t98.5 2q60 0 102 -2t71.5 -7.5t49.5 -14t36 -21.5q31 -26 44.5 -70.5t13.5 -124.5v-19t-1 -29h-462q0 -36 4.5 -51.5t17.5 -25.5q26 -20 120 -20q42 0 68.5 2
t41.5 7.5t21.5 15t9.5 25.5h176z" />
    <glyph glyph-name="ecircumflex" unicode="&#xea;" horiz-adv-x="693" 
d="M354 740l235 -144l-28 -59l-207 74l-208 -74l-28 59zM489 295q-1 28 -3.5 38.5t-10.5 18.5q-12 13 -41 18.5t-81 5.5q-45 0 -73.5 -3.5t-45 -12.5t-23 -24.5t-7.5 -40.5h285zM663 151q-5 -49 -21.5 -80.5t-54 -50t-99 -25.5t-156.5 -7q-51 0 -90 2.5t-68 7.5t-50 13.5
t-37 20.5q-17 13 -28.5 29.5t-18.5 40t-10 56t-3 77.5q0 48 3 81.5t10.5 57.5t20 40.5t30.5 29.5q17 12 38 20t51 13t71.5 7t98.5 2q60 0 102 -2t71.5 -7.5t49.5 -14t36 -21.5q31 -26 44.5 -70.5t13.5 -124.5v-19t-1 -29h-462q0 -36 4.5 -51.5t17.5 -25.5q26 -20 120 -20
q42 0 68.5 2t41.5 7.5t21.5 15t9.5 25.5h176z" />
    <glyph glyph-name="edieresis" unicode="&#xeb;" horiz-adv-x="693" 
d="M570 697v-127h-187v127h187zM317 697v-127h-187v127h187zM489 295q-1 28 -3.5 38.5t-10.5 18.5q-12 13 -41 18.5t-81 5.5q-45 0 -73.5 -3.5t-45 -12.5t-23 -24.5t-7.5 -40.5h285zM663 151q-5 -49 -21.5 -80.5t-54 -50t-99 -25.5t-156.5 -7q-51 0 -90 2.5t-68 7.5
t-50 13.5t-37 20.5q-17 13 -28.5 29.5t-18.5 40t-10 56t-3 77.5q0 48 3 81.5t10.5 57.5t20 40.5t30.5 29.5q17 12 38 20t51 13t71.5 7t98.5 2q60 0 102 -2t71.5 -7.5t49.5 -14t36 -21.5q31 -26 44.5 -70.5t13.5 -124.5v-19t-1 -29h-462q0 -36 4.5 -51.5t17.5 -25.5
q26 -20 120 -20q42 0 68.5 2t41.5 7.5t21.5 15t9.5 25.5h176z" />
    <glyph glyph-name="igrave" unicode="&#xec;" horiz-adv-x="257" 
d="M210 551l-52 -47l-216 178l107 100zM217 473v-473h-177v473h177z" />
    <glyph glyph-name="iacute" unicode="&#xed;" horiz-adv-x="257" 
d="M205 783l106 -101l-215 -179l-54 49zM217 473v-473h-177v473h177z" />
    <glyph glyph-name="icircumflex" unicode="&#xee;" horiz-adv-x="257" 
d="M-7 540l-33 56l169 144l168 -144l-33 -56l-135 71zM217 473v-473h-177v473h177z" />
    <glyph glyph-name="idieresis" unicode="&#xef;" horiz-adv-x="257" 
d="M318 697v-127h-167v127h167zM105 697v-127h-167v127h167zM217 473v-473h-177v473h177z" />
    <glyph glyph-name="eth" unicode="&#xf0;" horiz-adv-x="723" 
d="M576 700l23 -67l-104 -37l142 -152q14 -16 27.5 -40t21.5 -48q6 -20 8.5 -47t2.5 -69q0 -47 -2.5 -79.5t-9 -56t-17 -40t-26.5 -29.5q-17 -14 -38 -23t-53 -14.5t-77.5 -7.5t-111.5 -2t-111.5 2t-77.5 7.5t-53 14.5t-38 23q-16 13 -26.5 29.5t-17 39.5t-9 56t-2.5 79
q0 41 3 71t10 52.5t19 38t29 28.5q11 8 23 14t27 10.5t34.5 7.5t45.5 6q25 2 56.5 3.5t57.5 1.5t49.5 -1.5t58.5 -4.5l-71 86l-133 -47l-23 67l108 38l-55 67h154l23 -24zM363 352q-50 0 -81.5 -4.5t-48.5 -17t-23 -36t-6 -61.5q0 -47 8.5 -67t31.5 -30q33 -15 119 -15
q50 0 81 4t48 17t22.5 35.5t5.5 60.5q0 47 -9 68.5t-34 31.5q-17 7 -46.5 10.5t-67.5 3.5z" />
    <glyph glyph-name="ntilde" unicode="&#xf1;" horiz-adv-x="719" 
d="M600 704q-1 -46 -5 -69.5t-15 -42.5q-24 -42 -69 -42q-23 0 -54 7.5t-81 26.5t-74 26t-39 7q-18 0 -26 -12.5t-10 -41.5h-88q1 42 6 66.5t17 43.5q29 44 81 44q12 0 21.5 -1t23.5 -5t36 -12t59 -21q42 -15 65 -21.5t35 -6.5q19 0 26 20q1 5 1.5 11t0.5 23h89zM207 473
v-72h9q12 23 29 39t41 26t56 14.5t75 4.5q42 0 74.5 -3t58 -10.5t45 -19t35.5 -27.5q16 -17 26 -33.5t16 -39.5t8 -55.5t2 -81.5v-215h-177v215q0 28 -1 46.5t-3 30.5t-6.5 19.5t-11.5 14.5q-14 14 -42 20t-77 6t-77 -7t-44 -24q-8 -9 -13 -18.5t-8 -24t-4 -35.5t-1 -54
v-189h-177v473h167z" />
    <glyph glyph-name="ograve" unicode="&#xf2;" horiz-adv-x="723" 
d="M463 573l-44 -58l-252 142l91 121zM363 352q-50 0 -81.5 -4.5t-48.5 -17t-23 -36t-6 -61.5q0 -47 8.5 -67t31.5 -30q33 -15 119 -15q50 0 81 4t48 17t22.5 35.5t5.5 60.5q0 47 -9 68.5t-34 31.5q-17 7 -46.5 10.5t-67.5 3.5zM362 485q60 0 104 -2t76.5 -7.5t54.5 -13.5
t39 -20q18 -13 29.5 -29t18.5 -38.5t10 -54t3 -75.5q0 -48 -2.5 -82t-9 -58t-17 -40.5t-26.5 -29.5q-17 -14 -38.5 -23t-53 -14.5t-77 -7.5t-110.5 -2q-66 0 -111.5 2t-77.5 7.5t-53.5 14.5t-38.5 23q-17 13 -27.5 29.5t-16.5 41t-8.5 60t-2.5 86.5q0 41 3 71t10 52.5t19 38
t29 28.5q16 12 38.5 20t55 13.5t76.5 7.5t104 2z" />
    <glyph glyph-name="oacute" unicode="&#xf3;" horiz-adv-x="723" 
d="M470 779l89 -121l-249 -144l-47 60zM363 352q-50 0 -81.5 -4.5t-48.5 -17t-23 -36t-6 -61.5q0 -47 8.5 -67t31.5 -30q33 -15 119 -15q50 0 81 4t48 17t22.5 35.5t5.5 60.5q0 47 -9 68.5t-34 31.5q-17 7 -46.5 10.5t-67.5 3.5zM362 485q60 0 104 -2t76.5 -7.5t54.5 -13.5
t39 -20q18 -13 29.5 -29t18.5 -38.5t10 -54t3 -75.5q0 -48 -2.5 -82t-9 -58t-17 -40.5t-26.5 -29.5q-17 -14 -38.5 -23t-53 -14.5t-77 -7.5t-110.5 -2q-66 0 -111.5 2t-77.5 7.5t-53.5 14.5t-38.5 23q-17 13 -27.5 29.5t-16.5 41t-8.5 60t-2.5 86.5q0 41 3 71t10 52.5t19 38
t29 28.5q16 12 38.5 20t55 13.5t76.5 7.5t104 2z" />
    <glyph glyph-name="ocircumflex" unicode="&#xf4;" horiz-adv-x="723" 
d="M362 740l235 -144l-27 -59l-208 74l-208 -74l-27 59zM363 352q-50 0 -81.5 -4.5t-48.5 -17t-23 -36t-6 -61.5q0 -47 8.5 -67t31.5 -30q33 -15 119 -15q50 0 81 4t48 17t22.5 35.5t5.5 60.5q0 47 -9 68.5t-34 31.5q-17 7 -46.5 10.5t-67.5 3.5zM362 485q60 0 104 -2
t76.5 -7.5t54.5 -13.5t39 -20q18 -13 29.5 -29t18.5 -38.5t10 -54t3 -75.5q0 -48 -2.5 -82t-9 -58t-17 -40.5t-26.5 -29.5q-17 -14 -38.5 -23t-53 -14.5t-77 -7.5t-110.5 -2q-66 0 -111.5 2t-77.5 7.5t-53.5 14.5t-38.5 23q-17 13 -27.5 29.5t-16.5 41t-8.5 60t-2.5 86.5
q0 41 3 71t10 52.5t19 38t29 28.5q16 12 38.5 20t55 13.5t76.5 7.5t104 2z" />
    <glyph glyph-name="otilde" unicode="&#xf5;" horiz-adv-x="723" 
d="M592 704q0 -46 -4 -69.5t-15 -42.5q-26 -42 -70 -42q-23 0 -53.5 7.5t-80.5 26.5q-51 19 -75 26t-38 7q-19 0 -27 -12.5t-9 -41.5h-88q1 42 6 66.5t17 43.5q29 44 81 44q11 0 20.5 -1t24 -5t36.5 -12t58 -21q42 -15 65.5 -21.5t34.5 -6.5q21 0 26 20q2 5 2 11t1 23h88z
M363 352q-50 0 -81.5 -4.5t-48.5 -17t-23 -36t-6 -61.5q0 -47 8.5 -67t31.5 -30q33 -15 119 -15q50 0 81 4t48 17t22.5 35.5t5.5 60.5q0 47 -9 68.5t-34 31.5q-17 7 -46.5 10.5t-67.5 3.5zM362 485q60 0 104 -2t76.5 -7.5t54.5 -13.5t39 -20q18 -13 29.5 -29t18.5 -38.5
t10 -54t3 -75.5q0 -48 -2.5 -82t-9 -58t-17 -40.5t-26.5 -29.5q-17 -14 -38.5 -23t-53 -14.5t-77 -7.5t-110.5 -2q-66 0 -111.5 2t-77.5 7.5t-53.5 14.5t-38.5 23q-17 13 -27.5 29.5t-16.5 41t-8.5 60t-2.5 86.5q0 41 3 71t10 52.5t19 38t29 28.5q16 12 38.5 20t55 13.5
t76.5 7.5t104 2z" />
    <glyph glyph-name="odieresis" unicode="&#xf6;" horiz-adv-x="723" 
d="M582 697v-127h-187v127h187zM329 697v-127h-187v127h187zM363 352q-50 0 -81.5 -4.5t-48.5 -17t-23 -36t-6 -61.5q0 -47 8.5 -67t31.5 -30q33 -15 119 -15q50 0 81 4t48 17t22.5 35.5t5.5 60.5q0 47 -9 68.5t-34 31.5q-17 7 -46.5 10.5t-67.5 3.5zM362 485q60 0 104 -2
t76.5 -7.5t54.5 -13.5t39 -20q18 -13 29.5 -29t18.5 -38.5t10 -54t3 -75.5q0 -48 -2.5 -82t-9 -58t-17 -40.5t-26.5 -29.5q-17 -14 -38.5 -23t-53 -14.5t-77 -7.5t-110.5 -2q-66 0 -111.5 2t-77.5 7.5t-53.5 14.5t-38.5 23q-17 13 -27.5 29.5t-16.5 41t-8.5 60t-2.5 86.5
q0 41 3 71t10 52.5t19 38t29 28.5q16 12 38.5 20t55 13.5t76.5 7.5t104 2z" />
    <glyph glyph-name="divide" unicode="&#xf7;" 
d="M780 400v-120h-653v120h653zM542 612v-151h-177v151h177zM542 219v-151h-177v151h177z" />
    <glyph glyph-name="oslash" unicode="&#xf8;" horiz-adv-x="741" 
d="M738 412l-49 -28q5 -13 8.5 -25t5.5 -28t2.5 -36.5t0.5 -50.5q0 -48 -2.5 -81.5t-9 -57.5t-17 -40.5t-26.5 -29.5q-17 -14 -38 -23t-53 -14.5t-78 -7.5t-113 -2q-65 0 -110 2t-76.5 7.5t-52.5 14.5t-38 23l-92 -54v85l51 29q-5 13 -7.5 27t-4.5 30.5t-2.5 38.5t-0.5 52
q0 45 3 77t9.5 54.5t18.5 38.5t30 29q16 12 38.5 20t54.5 13.5t76.5 7.5t104.5 2t104 -2t75.5 -7t54 -13.5t40.5 -20.5l93 55v-85zM260 133q23 -7 48 -9.5t64 -2.5q50 0 81 4t48 17t22.5 35.5t5.5 60.5q0 15 -1 25.5t-3 24.5zM474 342q-41 10 -100 10q-51 0 -83 -4.5
t-49 -17t-23 -36t-6 -61.5v-19.5t2 -22.5z" />
    <glyph glyph-name="ugrave" unicode="&#xf9;" horiz-adv-x="717" 
d="M467 573l-45 -58l-251 142l91 121zM511 0v71h-9q-20 -45 -66.5 -64t-135.5 -19q-82 0 -130.5 14t-80.5 46q-16 16 -26 32.5t-16 39.5t-8 55.5t-2 80.5v217h177v-217q0 -26 1 -43.5t4 -29.5t7.5 -20.5t11.5 -15.5q15 -15 40 -20.5t75 -5.5q47 0 73.5 6t43.5 21
q9 8 15 17.5t9.5 24.5t5 37.5t1.5 55.5v190h177v-473h-167z" />
    <glyph glyph-name="uacute" unicode="&#xfa;" horiz-adv-x="717" 
d="M460 779l90 -121l-250 -144l-46 60zM511 0v71h-9q-20 -45 -66.5 -64t-135.5 -19q-82 0 -130.5 14t-80.5 46q-16 16 -26 32.5t-16 39.5t-8 55.5t-2 80.5v217h177v-217q0 -26 1 -43.5t4 -29.5t7.5 -20.5t11.5 -15.5q15 -15 40 -20.5t75 -5.5q47 0 73.5 6t43.5 21
q9 8 15 17.5t9.5 24.5t5 37.5t1.5 55.5v190h177v-473h-167z" />
    <glyph glyph-name="ucircumflex" unicode="&#xfb;" horiz-adv-x="717" 
d="M366 740l235 -144l-27 -59l-208 74l-208 -74l-28 59zM511 0v71h-9q-20 -45 -66.5 -64t-135.5 -19q-82 0 -130.5 14t-80.5 46q-16 16 -26 32.5t-16 39.5t-8 55.5t-2 80.5v217h177v-217q0 -26 1 -43.5t4 -29.5t7.5 -20.5t11.5 -15.5q15 -15 40 -20.5t75 -5.5q47 0 73.5 6
t43.5 21q9 8 15 17.5t9.5 24.5t5 37.5t1.5 55.5v190h177v-473h-167z" />
    <glyph glyph-name="udieresis" unicode="&#xfc;" horiz-adv-x="717" 
d="M579 697v-127h-187v127h187zM326 697v-127h-187v127h187zM511 0v71h-9q-20 -45 -66.5 -64t-135.5 -19q-82 0 -130.5 14t-80.5 46q-16 16 -26 32.5t-16 39.5t-8 55.5t-2 80.5v217h177v-217q0 -26 1 -43.5t4 -29.5t7.5 -20.5t11.5 -15.5q15 -15 40 -20.5t75 -5.5
q47 0 73.5 6t43.5 21q9 8 15 17.5t9.5 24.5t5 37.5t1.5 55.5v190h177v-473h-167z" />
    <glyph glyph-name="yacute" unicode="&#xfd;" horiz-adv-x="649" 
d="M426 779l89 -121l-249 -144l-46 60zM181 473l135 -344l150 344h196l-252 -534q-18 -39 -29 -61t-19 -34t-15.5 -18t-18.5 -13q-22 -14 -52.5 -20t-76.5 -6q-58 0 -76 3v121l8 1h32q22 0 37.5 3t27 13t21 27.5t20.5 44.5h-71l-211 473h194z" />
    <glyph glyph-name="thorn" unicode="&#xfe;" horiz-adv-x="734" 
d="M40 667h167v-258h9q12 22 28 37t41 24t61 12.5t87 3.5q91 0 143 -12t82 -40q14 -13 23.5 -29t15 -39t8 -54.5t2.5 -76.5q0 -77 -11 -125.5t-42 -75.5t-86 -36.5t-143 -9.5q-45 0 -76.5 3.5t-55 12t-39.5 22.5t-29 35h-8v-258h-177v864zM380 353q-53 0 -85.5 -4t-49.5 -17
t-22.5 -37t-5.5 -63q0 -35 6 -56.5t23.5 -33.5t48 -16.5t79.5 -4.5q100 0 129 21q16 12 21.5 33.5t5.5 68.5q0 34 -5.5 55.5t-22 33.5t-46 16t-76.5 4z" />
    <glyph glyph-name="ydieresis" unicode="&#xff;" horiz-adv-x="649" 
d="M545 697v-127h-187v127h187zM292 697v-127h-187v127h187zM181 473l135 -344l150 344h196l-252 -534q-18 -39 -29 -61t-19 -34t-15.5 -18t-18.5 -13q-22 -14 -52.5 -20t-76.5 -6q-58 0 -76 3v121l8 1h32q22 0 37.5 3t27 13t21 27.5t20.5 44.5h-71l-211 473h194z" />
    <glyph glyph-name="OE" unicode="&#x152;" horiz-adv-x="1506" 
d="M1484 510h-538v-97h511v-147h-511v-106h543v-160h-718q-42 -5 -104 -7.5t-147 -2.5q-94 0 -165 3t-122.5 9.5t-85.5 17t-53 24.5q-18 13 -30 32t-19 50.5t-9.5 79.5t-2.5 120q0 74 3.5 126t12 88t22.5 58t35 37q17 12 42.5 20t65.5 13t97.5 7t139.5 2q33 0 77.5 -1
t88.5 -2.5t81 -3t57 -3.5h729v-157zM482 503q-52 0 -89 -1t-62 -4t-40 -7.5t-24 -10.5q-17 -12 -24 -48.5t-7 -110.5q0 -56 5 -88t26.5 -47.5t66 -19t123.5 -3.5q53 0 91 0.5t64 1.5t43 2.5t29 4.5q19 4 31 12.5t19 28.5t9 54.5t2 90.5q0 31 -1 51.5t-3.5 33.5t-7.5 20.5
t-12 13.5q-13 10 -33 14.5t-65 7.5q-13 1 -31.5 1.5t-38 1t-38.5 1t-33 0.5z" />
    <glyph glyph-name="oe" unicode="&#x153;" horiz-adv-x="1180" 
d="M619 419q14 19 33.5 32t48 20.5t68.5 11t97 3.5q49 0 85.5 -2.5t64 -7.5t47.5 -13.5t35 -20.5q15 -13 26 -29.5t17.5 -39.5t9.5 -54t3 -72v-19.5t-1 -29.5h-457q0 -32 5.5 -51t21 -29t44 -13.5t75.5 -3.5q39 0 63.5 1.5t39 6.5t21 13t9.5 22l2 7h174q-5 -49 -21.5 -80.5
t-52.5 -50t-95.5 -25.5t-149.5 -7q-45 0 -79.5 3.5t-61.5 11t-47.5 20.5t-37.5 31h-10q-15 -18 -35 -31t-48 -20.5t-65.5 -11t-88.5 -3.5q-59 0 -102 2.5t-75 8t-55 14t-40 21.5q-17 12 -28.5 28t-18.5 39.5t-10 55.5t-3 77q0 47 3.5 81.5t12 60t21.5 43t32 30.5
q16 10 36.5 17.5t49.5 11.5t68.5 6t93.5 2q57 0 98.5 -3.5t72.5 -11.5t52.5 -20.5t38.5 -31.5h13zM359 353q-50 0 -80 -4t-47 -16.5t-22.5 -35t-5.5 -59.5q0 -25 1.5 -41.5t5.5 -27.5t10.5 -18t17.5 -12q17 -8 50 -13t78 -5q48 0 77.5 4.5t46 17t22.5 35.5t6 60t-6 59.5
t-23 35t-48.5 16.5t-82.5 4zM976 307q0 21 -5.5 34.5t-20 21t-40 10.5t-65.5 3q-47 0 -75.5 -2.5t-44 -11t-21.5 -24.5t-8 -43h281z" />
    <glyph glyph-name="Scaron" unicode="&#x160;" horiz-adv-x="863" 
d="M427 733l-249 135l28 65l221 -57l221 57l28 -65zM220 221q0 -30 4 -42.5t16 -20.5q7 -5 16.5 -7.5t29 -4t52 -2t86.5 -0.5q59 0 95 0.5t56 1.5t29.5 3t16.5 5q21 10 21 49q0 15 -3.5 24.5t-12.5 15.5t-25 8.5t-40 2.5l-159 6q-37 1 -76.5 3t-85.5 4q-73 2 -112.5 13.5
t-61.5 37.5q-19 23 -28 56t-9 84q0 146 70 185q19 10 42.5 17t62 10.5t97.5 5t149 1.5q72 0 122.5 -2t86 -6.5t59 -12.5t41.5 -20q30 -20 43 -54t13 -94v-12.5t-1 -18.5h-196q-1 26 -4 35.5t-12 16.5q-6 5 -15 8t-29.5 4.5t-55 2t-91.5 0.5q-64 0 -101 -1.5t-55.5 -6.5
t-23.5 -16t-5 -29q0 -36 30 -43q7 -2 21.5 -3.5t39.5 -3t62.5 -3t90.5 -2.5q82 -3 134.5 -5.5t85 -6.5t51.5 -10.5t35 -16.5q34 -23 48.5 -60.5t14.5 -107.5q0 -87 -22.5 -133.5t-74.5 -65.5q-15 -6 -39.5 -9.5t-63 -6t-92.5 -3.5t-128 -1q-77 0 -132.5 2t-94.5 6.5
t-64.5 12t-43.5 18.5q-17 11 -29 24.5t-19 32t-10 43.5t-3 60v32h197z" />
    <glyph glyph-name="scaron" unicode="&#x161;" horiz-adv-x="703" 
d="M351 526l-235 145l28 59l207 -74l208 74l28 -59zM205 151q1 -15 8.5 -25.5t25 -16.5t45 -8.5t69.5 -2.5q43 0 71.5 2t45.5 7t24 13.5t7 21.5q0 30 -41 35q-9 1 -23.5 1.5t-41.5 1t-69.5 0.5h-107.5q-101 2 -145.5 35.5t-44.5 109.5q0 107 82 138q29 11 90 16.5t155 5.5
q60 0 102.5 -2t72.5 -7t50 -13.5t35 -21.5q19 -15 27 -37t11 -65h-180q-5 19 -12 22q-23 14 -111 14q-83 0 -114 -8.5t-31 -30.5q0 -28 43 -31q11 -1 24 -1.5t38.5 -1t67.5 -1t111 -0.5q51 0 87 -8.5t58.5 -26t33 -45.5t10.5 -67q0 -107 -77 -139q-32 -14 -96.5 -20.5
t-164.5 -6.5q-65 0 -109.5 2.5t-75.5 8t-51.5 15t-36.5 23.5q-22 20 -31.5 46t-10.5 68h180z" />
    <glyph glyph-name="Ydieresis" unicode="&#x178;" horiz-adv-x="917" 
d="M705 912v-144h-193v144h193zM405 912v-144h-193v144h193zM247 667l217 -267l208 267h265l-365 -431v-236h-210v236l-382 431h267z" />
    <glyph glyph-name="Zcaron" unicode="&#x17d;" horiz-adv-x="865" 
d="M426 733l-249 135l28 65l221 -57l221 57l28 -65zM830 667v-153l-488 -354l503 7v-167h-825v156l482 351l-471 -7v167h799z" />
    <glyph glyph-name="zcaron" unicode="&#x17e;" horiz-adv-x="609" 
d="M305 526l-236 145l28 59l208 -74l207 74l28 -59zM582 473v-135l-292 -215h302v-123h-575v122l304 231h-283v120h544z" />
    <glyph glyph-name="florin" unicode="&#x192;" horiz-adv-x="667" 
d="M135 320l23 127h117q2 8 3.5 16t3.5 16q7 40 16.5 68.5t22 49t29.5 34.5t41 25q14 6 30 10.5t37 7.5t48.5 4t63.5 1h25t21.5 -0.5t21.5 -1t25 -1.5l-21 -116q-26 1 -33.5 1h-12.5q-39 0 -62.5 -4.5t-37.5 -15.5q-6 -5 -10.5 -11t-8.5 -16t-7.5 -26t-7.5 -41h174l-22 -127
h-174l-44 -248q-6 -32 -12.5 -57t-15.5 -44t-20.5 -33t-26.5 -26q-17 -13 -35 -21.5t-42 -14t-55 -7.5t-74 -2h-44.5t-57.5 2l21 117q14 0 22 -0.5t12.5 -0.5h7h4.5q35 0 58 3.5t37 13.5t21.5 26.5t12.5 43.5l44 248h-118z" />
    <glyph glyph-name="circumflex" unicode="&#x2c6;" horiz-adv-x="500" 
d="M250 740l236 -144l-28 -59l-208 74l-208 -74l-27 59z" />
    <glyph glyph-name="tilde" unicode="&#x2dc;" horiz-adv-x="500" 
d="M480 704q0 -46 -4 -69.5t-15 -42.5q-24 -42 -70 -42q-23 0 -53.5 7.5t-80.5 26.5q-51 19 -74.5 26t-38.5 7q-19 0 -27 -12.5t-9 -41.5h-88q1 42 6 66.5t17 43.5q29 44 81 44q12 0 21.5 -1t23.5 -5t36 -12t59 -21q42 -15 65 -21.5t35 -6.5q20 0 25 20q2 5 2.5 11t0.5 23
h88z" />
    <glyph glyph-name="endash" unicode="&#x2013;" horiz-adv-x="690" 
d="M657 308v-136h-624v136h624z" />
    <glyph glyph-name="emdash" unicode="&#x2014;" horiz-adv-x="1110" 
d="M1077 308v-136h-1044v136h1044z" />
    <glyph glyph-name="quoteleft" unicode="&#x2018;" horiz-adv-x="334" 
d="M53 293v194q0 31 1 54t4 40t8 29t13 21q9 12 21 19.5t30 12t45 6.5t67 2h22.5t29.5 -1v-105h-15h-18q-27 0 -39 -13t-12 -42v-19h56v-198h-213z" />
    <glyph glyph-name="quoteright" unicode="&#x2019;" horiz-adv-x="334" 
d="M281 667v-194q0 -31 -1.5 -54t-4.5 -39.5t-8 -28.5t-12 -21q-9 -12 -21 -20t-30 -12.5t-45 -6t-67 -1.5h-24.5t-27.5 1v105h15h18q27 0 39 12.5t12 41.5v19h-56v198h213z" />
    <glyph glyph-name="quotesinglbase" unicode="&#x201a;" horiz-adv-x="334" 
d="M281 198v-194q0 -31 -1.5 -54t-4.5 -39.5t-8 -28.5t-12 -21q-9 -12 -21 -20t-30 -12.5t-45 -6t-67 -1.5h-24.5t-27.5 1v105h15h18q27 0 39 12.5t12 41.5v19h-56v198h213z" />
    <glyph glyph-name="quotedblleft" unicode="&#x201c;" horiz-adv-x="605" 
d="M53 293v194q0 31 1 54t4 39.5t7.5 28.5t11.5 22q9 12 19.5 19.5t27 12t41.5 6.5t61 2h23.5t27.5 -1v-99h-15h-11q-29 0 -41.5 -13t-12.5 -42v-25h59v-198h-203zM341 293v194q0 31 1 54t4 39.5t7.5 28.5t11.5 22q9 12 19.5 19.5t27 12t41.5 6.5t61 2h23.5t27.5 -1v-99h-13
h-13q-29 0 -41.5 -13t-12.5 -42v-25h59v-198h-203z" />
    <glyph glyph-name="quotedblright" unicode="&#x201d;" horiz-adv-x="605" 
d="M552 667v-194q0 -62 -5.5 -93t-18.5 -50q-9 -12 -19.5 -20t-27 -12.5t-41.5 -6t-61 -1.5h-24t-27 1v98h15h11q29 0 41.5 13t12.5 42v25h-59v198h203zM264 667v-194q0 -62 -5.5 -93t-18.5 -50q-9 -12 -19.5 -20t-27 -12.5t-41.5 -6t-61 -1.5h-24t-27 1v98h13h13
q29 0 41.5 13t12.5 42v25h-59v198h203z" />
    <glyph glyph-name="quotedblbase" unicode="&#x201e;" horiz-adv-x="605" 
d="M552 198v-194q0 -62 -5.5 -93t-18.5 -50q-9 -12 -19.5 -20t-27 -12.5t-41.5 -6t-61 -1.5h-24t-27 1v98h15h11q29 0 41.5 13t12.5 42v25h-59v198h203zM264 198v-194q0 -62 -5.5 -93t-18.5 -50q-9 -12 -19.5 -20t-27 -12.5t-41.5 -6t-61 -1.5h-24t-27 1v98h13h13
q29 0 41.5 13t12.5 42v25h-59v198h203z" />
    <glyph glyph-name="dagger" unicode="&#x2020;" 
d="M349 423h-257v137h257v213h200v-213h256v-137h-256v-516h-200v516z" />
    <glyph glyph-name="daggerdbl" unicode="&#x2021;" 
d="M92 423v137h257v213h200v-213h256v-137h-256v-156h256v-137h-256v-223h-200v223h-257v137h257v156h-257z" />
    <glyph glyph-name="bullet" unicode="&#x2022;" horiz-adv-x="667" 
d="M336 477q28 0 53 -11t43.5 -30t29.5 -44.5t11 -53.5q0 -29 -11 -54t-29.5 -43.5t-44 -29.5t-53.5 -11q-29 0 -54.5 11t-44 29.5t-29.5 43.5t-11 54t11 54.5t30 44t44.5 29.5t54.5 11z" />
    <glyph glyph-name="ellipsis" unicode="&#x2026;" horiz-adv-x="980" 
d="M923 177v-177h-213v177h213zM597 177v-177h-213v177h213zM270 177v-177h-213v177h213z" />
    <glyph glyph-name="perthousand" unicode="&#x2030;" horiz-adv-x="1911" 
d="M284 677q83 0 142 -7t83 -21q12 -7 19.5 -17t12 -29t6 -49t1.5 -76q0 -52 -2 -84t-8 -50.5t-17 -28t-29 -15.5q-13 -5 -34.5 -9t-48.5 -6.5t-58.5 -4t-65.5 -1.5q-191 0 -236 36q-9 7 -14.5 18t-8.5 30t-4.5 48t-1.5 71q0 39 1.5 66t5 45.5t9 29.5t13.5 18t18 11.5
t24 8.5t32.5 6.5t44.5 4.5q25 2 57 3.5t59 1.5zM282 573q-95 0 -120 -11q-14 -7 -19.5 -25.5t-5.5 -56.5q0 -47 7 -65.5t27 -24.5q13 -4 43 -6t68 -2t73.5 3t50.5 8q13 4 18.5 23.5t5.5 60.5q0 48 -9 71q-3 10 -12.5 14t-38.5 6q-23 3 -44 4t-44 1zM1049 604l-687 -620
l-70 79l688 620zM1048 391q97 0 160.5 -10t85.5 -29q8 -7 13.5 -17t8.5 -28.5t4 -47t1 -71.5q0 -41 -1 -68.5t-4 -45.5t-8.5 -28t-13.5 -17q-22 -19 -85 -29t-162 -10q-181 0 -226 36q-9 7 -15 18t-9 30.5t-4.5 48.5t-1.5 72q0 40 1.5 67t5 45.5t9 29.5t14.5 18
q45 36 227 36zM1048 286q-42 0 -72 -3t-42 -8q-14 -5 -19.5 -24t-5.5 -59q0 -24 1.5 -40.5t5.5 -26.5t10.5 -15t17.5 -8q13 -4 41 -6t61 -2q21 0 41.5 1t38.5 2.5t31.5 3.5t20.5 4q25 7 25 83q0 71 -17 83q-9 7 -47.5 11t-90.5 4zM1618 391q97 0 160.5 -10t85.5 -29
q8 -7 13.5 -17t8.5 -28.5t4 -47t1 -71.5q0 -41 -1 -68.5t-4 -45.5t-8.5 -28t-13.5 -17q-22 -19 -85 -29t-162 -10q-181 0 -226 36q-9 7 -15 18t-9 30.5t-4.5 48.5t-1.5 72q0 40 1.5 67t5 45.5t9 29.5t14.5 18q45 36 227 36zM1618 286q-42 0 -72 -3t-42 -8q-14 -5 -19.5 -24
t-5.5 -59q0 -24 1.5 -40.5t5.5 -26.5t10.5 -15t17.5 -8q13 -4 41 -6t61 -2q21 0 41.5 1t38.5 2.5t31.5 3.5t20.5 4q25 7 25 83q0 71 -17 83q-9 7 -47.5 11t-90.5 4z" />
    <glyph glyph-name="guilsinglleft" unicode="&#x2039;" horiz-adv-x="363" 
d="M270 346l-53 -68l113 -202l-143 -76l-154 278l128 156z" />
    <glyph glyph-name="guilsinglright" unicode="&#x203a;" horiz-adv-x="368" 
d="M202 451l132 -169l-156 -282l-145 79l118 208l-61 79z" />
    <glyph glyph-name="Euro" unicode="&#x20ac;" 
d="M693 401l-51 -120h-320q1 -23 2 -38t2.5 -25t4 -16.5t7.5 -13.5q6 -10 15.5 -16t27 -9.5t46.5 -4.5t74 -1q61 0 95.5 1.5t51.5 8t22.5 19.5t7.5 37h206q1 -9 1 -17.5v-11.5q0 -80 -21 -121t-71 -59q-18 -7 -40 -11.5t-51 -7.5t-67.5 -4t-90.5 -1q-101 0 -166 2.5
t-107 8.5t-66 17.5t-41 29.5q-24 24 -34 64.5t-11 109.5q0 11 -0.5 17.5t-0.5 12v12v17.5h-79l51 120h28q0 29 0.5 45.5t1 26.5t1 17t2.5 18q4 38 13.5 65t27 45.5t44 29.5t65.5 17q36 6 105.5 9t166.5 3q61 0 103.5 -1.5t72.5 -5t49.5 -9.5t35.5 -15q19 -12 32 -25
t20.5 -33t11 -51t5.5 -77v-9h-204q-2 25 -8 35t-22 15q-13 4 -55 6.5t-91 2.5q-59 0 -92 -2.5t-50 -13.5t-22.5 -32.5t-7.5 -60.5h370z" />
    <glyph glyph-name="trademark" unicode="&#x2122;" horiz-adv-x="1326" 
d="M809 667l122 -247l122 247h239v-400h-136l3 292h-13l-159 -292h-112l-158 292h-15l3 -292h-136v400h240zM523 667v-109h-187v-291h-144v291h-187v109h518z" />
  </font>
</defs>
</svg>
