<?xml version="1.0" encoding="UTF-8"?>
<svg id="Layer_2" data-name="Layer 2" xmlns="http://www.w3.org/2000/svg" viewBox="0 0 2554.58 588.42">
  <defs>
    <style>
      .cls-1 {
        fill-rule: evenodd;
      }
    </style>
  </defs>
  <g id="Roland">
    <g>
      <path class="cls-1" d="M13.57,588.42c-6.78,0-10.74-.56-11.87-1.7-1.14-1.13-1.7-5.37-1.7-12.72v-118.7c0-5.09.56-8.05,1.7-8.9,1.13-.85,5.09-1.27,11.87-1.27h123.79c14.69,0,24.44-.85,29.25-2.54,4.8-1.7,7.21-5.37,7.21-11.02v-66.98h-101.74c-28.27,0-47.35-6.07-57.23-18.23-9.9-12.15-14.84-32.35-14.84-60.62V79.7C0,51.44,4.94,31.09,14.84,18.65,24.72,6.23,43.8,0,72.07,0h255.21c6.78,0,10.73.42,11.87,1.27,1.13.85,1.7,3.82,1.7,8.9v119.55c0,7.35-.57,11.59-1.7,12.72s-5.09,1.7-11.87,1.7h-123.79c-14.71,0-24.46.85-29.25,2.54-4.81,1.7-7.21,5.66-7.21,11.87v66.13h101.74c22.04,0,38.29,3.54,48.75,10.6,10.45,7.08,17.38,18.8,20.77,35.19,0,.57.42,1.56,1.27,2.97.85,1.42,1.27,3.54,1.27,6.36v229.77c0,28.27-4.96,48.47-14.84,60.62-9.9,12.16-28.97,18.23-57.23,18.23H13.57Z"/>
      <path class="cls-1" d="M637.59,574.85c0,6.78-.57,10.74-1.7,11.87-1.14,1.14-5.38,1.7-12.72,1.7h-142.44c-5.09,0-8.06-.56-8.9-1.7-.85-1.13-1.27-5.09-1.27-11.87V144.14h-75.46c-6.78,0-10.74-.42-11.87-1.27-1.14-.85-1.7-3.82-1.7-8.9V14.41c0-7.34.56-11.58,1.7-12.72s5.09-1.7,11.87-1.7h309.47c6.78,0,10.73.57,11.87,1.7,1.13,1.14,1.7,5.38,1.7,12.72v119.55c0,5.09-.57,8.05-1.7,8.9-1.14.85-5.09,1.27-11.87,1.27h-66.98v430.71Z"/>
      <path class="cls-1" d="M838.53,588.42c-28.27,0-48.62-4.94-61.05-14.84-12.44-9.88-18.65-28.96-18.65-57.23V72.07c0-28.26,6.21-47.33,18.65-57.23,12.43-9.88,32.78-14.84,61.05-14.84h247.58c6.78,0,10.73.57,11.87,1.7,1.13,1.14,1.7,5.38,1.7,12.72v119.55c0,5.09-.57,8.05-1.7,8.9-1.14.85-5.09,1.27-11.87,1.27h-160.25v79.7h160.25c6.78,0,10.73.57,11.87,1.7,1.13,1.14,1.7,5.38,1.7,12.72v119.55c0,5.09-.57,8.05-1.7,8.9-1.14.85-5.09,1.27-11.87,1.27h-160.25v76.31h160.25c6.78,0,10.73.57,11.87,1.7,1.13,1.14,1.7,5.38,1.7,12.72v119.55c0,5.09-.57,8.05-1.7,8.9-1.14.85-5.09,1.27-11.87,1.27h-247.58Z"/>
      <path class="cls-1" d="M1323.5,144.14c-5.66,0-9.47,2.41-11.45,7.21-1.99,4.81-2.97,14.56-2.97,29.25v43.24h89.87c6.78,0,10.73.57,11.87,1.7,1.13,1.14,1.7,5.38,1.7,12.72v119.55c0,5.09-.57,8.05-1.7,8.9-1.14.85-5.09,1.27-11.87,1.27h-89.87v206.88c0,6.78-.42,10.74-1.27,11.87-.85,1.14-3.82,1.7-8.9,1.7h-142.44c-7.35,0-11.59-.56-12.72-1.7-1.14-1.13-1.7-5.09-1.7-11.87V72.07c0-28.26,6.21-47.33,18.65-57.23,12.43-9.88,32.78-14.84,61.05-14.84h206.03v144.14h-104.29Z"/>
      <path class="cls-1" d="M1518.51,574.85c0,6.78-.57,10.74-1.7,11.87-1.14,1.14-5.38,1.7-12.72,1.7h-142.44c-5.09,0-8.05-.56-8.9-1.7-.85-1.13-1.27-5.09-1.27-11.87v-117.01c0-6.78.42-10.73,1.27-11.87.85-1.13,3.82-1.7,8.9-1.7h142.44c7.34,0,11.58.57,12.72,1.7,1.13,1.14,1.7,5.09,1.7,11.87v117.01Z"/>
      <path class="cls-1" d="M1742.34,144.14c-5.66,0-9.47,2.41-11.45,7.21-1.99,4.81-2.97,14.56-2.97,29.25v43.24h89.87c6.78,0,10.73.57,11.87,1.7,1.13,1.14,1.7,5.38,1.7,12.72v119.55c0,5.09-.57,8.05-1.7,8.9-1.14.85-5.09,1.27-11.87,1.27h-89.87v206.88c0,6.78-.42,10.74-1.27,11.87-.85,1.14-3.82,1.7-8.9,1.7h-142.44c-7.35,0-11.59-.56-12.72-1.7-1.14-1.13-1.7-5.09-1.7-11.87V72.07c0-28.26,6.21-47.33,18.65-57.23,12.43-9.88,32.78-14.84,61.05-14.84h206.03v144.14h-104.29Z"/>
      <path class="cls-1" d="M2554.58,574.85c0,6.78-.57,10.74-1.7,11.87-1.14,1.14-5.38,1.7-12.72,1.7h-142.44c-5.09,0-8.05-.56-8.9-1.7-.85-1.13-1.27-5.09-1.27-11.87V192.47c0-14.69-2.83-26.42-8.48-35.19-5.66-8.76-13.29-13.14-22.89-13.14h-45.78c-2.83,0-4.53.85-5.09,2.54v428.17c0,6.78-.57,10.74-1.7,11.87-1.14,1.14-5.38,1.7-12.72,1.7h-142.44c-5.09,0-8.05-.56-8.9-1.7-.85-1.13-1.27-5.09-1.27-11.87V192.47c0-16.39-2.97-28.54-8.9-36.46-5.94-7.91-13.43-11.87-22.47-11.87h-45.79c-3.39,0-5.09,1.99-5.09,5.93v424.78c0,6.78-.57,10.74-1.7,11.87-1.14,1.14-5.38,1.7-12.72,1.7h-142.44c-5.09,0-8.05-.56-8.9-1.7-.85-1.13-1.27-5.09-1.27-11.87V13.57c0-6.21.98-10.03,2.97-11.45,1.97-1.4,7.76-2.12,17.38-2.12h566.37c27.69,0,47.76,4.96,60.2,14.84,12.43,9.9,18.65,28.97,18.65,57.23v502.78Z"/>
    </g>
  </g>
</svg>
