<?xml version="1.0" encoding="UTF-8"?>
<svg id="Layer_1" data-name="Layer 1" xmlns="http://www.w3.org/2000/svg" viewBox="0 0 2564.76 544.74">
  <defs>
    <style>
      .cls-1 {
        fill-rule: evenodd;
      }
    </style>
  </defs>
  <path class="cls-1" d="M1351.22,97.87h-126.51v-23.39h348.13v19.85h-221.62v3.54ZM1224.72,37.24h348.13v23.38h-348.13v-23.38ZM1224.72.95h348.13v22.43h-348.13V.95ZM837.25,521.36h367.52v19.43h-367.52v-19.43ZM837.25,484.12h367.52v23.38h-367.52v-23.38ZM837.25,446.88h126.51v.53h241.01v22.86h-367.52v-23.39ZM963.76,97.87h-126.51v-23.39h367.52v19.85h-241.01v3.54ZM837.25,37.24h367.52v23.38h-367.52v-23.38ZM837.25.95h367.52v22.43h-367.52V.95ZM689.65,97.87h-126.51v-3.54h-126.51v-19.85h380.45v19.85h-127.43v3.54ZM436.63,37.24h380.45v23.38h-380.45v-23.38ZM436.63.95h380.45v22.43h-380.45V.95ZM240.09,315c-5.54-1.7-14.63-4.38-27.24-8.02-12.62-3.65-21.09-6.2-25.39-7.66-1.54-.48-3.02-.94-4.51-1.4h236.72c5.31,7.28,9.75,15.08,13.33,23.39h-174.88c-7.51-2.81-13.54-4.92-18.03-6.3ZM287.81,111.72h133.89c2.28,7.54,3.93,15.33,4.96,23.38h-129.75c-1.81-8.95-4.84-16.75-9.1-23.38ZM221.62,83.39c-19.74,0-36.13,4.84-49.18,14.48H32.9c3.01-8.13,6.85-15.92,11.54-23.39h359.58c5,7.47,9.2,15.27,12.64,23.39h-141.68c-12.72-9.64-30.5-14.48-53.36-14.48ZM78.23,37.24h291.29c9.09,7.36,17.1,15.16,24.07,23.38H54.43c6.77-8.25,14.69-16.05,23.8-23.38ZM150.39,0h148.12c18.6,5.51,35.86,13.31,51.79,23.39H97.73C113.86,13.31,131.41,5.51,150.39,0ZM151.54,135.1H25.2c.49-8.05,1.64-15.85,3.46-23.38h130.34c-4.52,6.9-7.01,14.69-7.47,23.38ZM154.67,155.61c2.15,5.36,4.46,9.97,6.93,13.86.6.96,1.32,1.92,2.15,2.88H27.52c-1.41-7.5-2.26-15.29-2.5-23.39h127.64c.52,2.29,1.16,4.52,2.02,6.65ZM134.61,395.79H.79c-.35-3.18-.62-6.4-.79-9.66h132.97c.38,3.32.94,6.53,1.64,9.66ZM444.17,379.56c0,5.52-.26,10.92-.76,16.22h-126c.15-1.73.25-3.49.25-5.28,0-6.4-.75-12.43-2.23-18.11h128.58c.09,2.36.16,4.75.16,7.16ZM442.89,358.54h-133.25c-2.2-3.55-4.9-6.88-8.14-9.98-5.62-5.36-10.65-9.82-15.12-13.4h151.68c2.23,7.43,3.82,15.23,4.83,23.38ZM441.49,409.64c-1.49,8.07-3.64,15.86-6.37,23.38h-137.33c7.85-6.89,13.37-14.68,16.57-23.38h127.14ZM290.8,544.74h-134.52c-22.52-5.05-43.43-12.85-62.72-23.39h260.52c-19.2,10.54-40.3,18.33-63.29,23.39ZM67.41,504.67c-8.8-6.5-16.72-13.35-23.8-20.55h359.49c-6.47,6.83-13.71,13.31-21.72,19.46-1.75,1.34-3.52,2.64-5.3,3.92H71.33c-1.31-.93-2.62-1.87-3.92-2.83ZM276.45,446.88h152.77c-4,8.15-8.8,15.94-14.39,23.39H31.38c-5.87-7.46-10.92-15.26-15.15-23.39h156.44c13.85,7.65,30.78,11.47,50.8,11.47s37.26-3.83,52.98-11.47ZM9.93,433.02c-2.95-7.54-5.29-15.32-6.95-23.38h136.03c3.68,8.71,8.89,16.5,15.6,23.38H9.93ZM397.53,274.52c3.68,3.05,7.13,6.24,10.37,9.55H139.91c-6.09-2.08-10.88-3.8-14.32-5.17-13.09-5.41-24.89-11.48-35.43-18.21h288.62c6.7,4.43,12.96,9.03,18.75,13.83ZM30.88,186.2h151.76c2.42,1.48,4.49,2.71,6.2,3.69,3.38,1.95,9.54,4.38,18.47,7.29,8.92,2.92,14.92,4.87,18.01,5.84,3.07.98,10,2.8,20.78,5.47,1.56.39,2.99.74,4.36,1.09H40.65c-4.03-7.4-7.29-15.18-9.77-23.38ZM355.19,246.83H71.34c-8.45-7.2-15.75-14.99-21.89-23.39h249.82c20.74,6.94,39.37,14.74,55.92,23.39ZM689.65,540.78h-126.51v-19.43h126.51v19.43ZM689.65,507.5h-126.51v-23.38h126.51v23.38ZM689.65,470.27h-126.51v-23.39h126.51v23.39ZM689.65,433.02h-126.51v-23.38h126.51v23.38ZM689.65,395.79h-126.51v-23.39h126.51v23.39ZM689.65,358.54h-126.51v-23.38h126.51v23.38ZM689.65,321.31h-126.51v-23.39h126.51v23.39ZM689.65,284.06h-126.51v-23.38h126.51v23.38ZM689.65,246.83h-126.51v-23.39h126.51v23.39ZM689.65,209.58h-126.51v-23.38h126.51v23.38ZM563.14,111.72h126.51v23.38h-126.51v-23.38ZM689.65,172.35h-126.51v-23.39h126.51v23.39ZM837.25,409.64h126.51v23.38h-126.51v-23.38ZM963.76,395.79h-126.51v-23.39h126.51v23.39ZM837.25,335.16h126.51v23.38h-126.51v-23.38ZM1194.61,319.75h-230.86v1.56h-126.51v-23.39h357.36v21.83ZM1194.61,284.06h-357.36v-23.38h357.36v23.38ZM963.76,226.37h230.86v20.46h-357.36v-23.39h126.51v2.93ZM963.76,209.58h-126.51v-23.38h126.51v23.38ZM837.25,111.72h126.51v23.38h-126.51v-23.38ZM963.76,172.35h-126.51v-23.39h126.51v23.39ZM1224.72,335.16h126.51v23.38h-126.51v-23.38ZM1224.72,372.4h126.51v23.39h-126.51v-23.39ZM1224.72,409.64h126.51v23.38h-126.51v-23.38ZM1224.72,446.88h126.51v23.39h-126.51v-23.39ZM1351.22,540.78h-126.51v-19.43h126.51v19.43ZM1224.72,484.12h126.51v23.38h-126.51v-23.38ZM1562.69,319.75h-211.46v1.56h-126.51v-23.39h337.97v21.83ZM1562.69,284.06h-337.97v-23.38h337.97v23.38ZM1351.22,226.37h211.46v20.46h-337.97v-23.39h126.51v2.93ZM1351.22,209.58h-126.51v-23.38h126.51v23.38ZM1224.72,111.72h126.51v23.38h-126.51v-23.38ZM1351.22,172.35h-126.51v-23.39h126.51v23.39Z"/>
  <path d="M1565.19,542.46h-112.25v-112.25h112.25v112.25ZM1475.93,519.46h66.25v-66.25h-66.25v66.25ZM1738.69,542.25h-144.41V1.16h357.11v112.62h-212.7v103.72h202.95v112.62h-202.95v212.14ZM1617.27,519.25h98.41v-212.14h202.95v-66.62h-202.95V90.77h212.7V24.16h-311.11v495.09ZM2564.76,541.24h-144.41V213.79l-93.81,327.45h-120.18l-90.96-323.08v323.08h-144.41V.15h188.48l107.93,366.06L2376.3.15h188.46v541.09ZM2443.34,518.24h98.41V23.15h-148.31l-116.64,392.07h-18.95l-115.6-392.07h-148.29v495.09h98.41V129.67h21.98l109.4,388.57h85.43l111.32-388.57h22.83v388.57Z"/>
</svg>